g Mesh1
# Vertex Positions: 48
v -40 -5 115
v -83 -5 115
v -83 1 115
v -40 1 115
v -40 -5 40.00001
v -40 1 40.00001
v -83 -5 40.00001
v -83 1 40.00001
v -50 -5 -0.9999943
v -72 -5 -0.9999943
v -72 8.750001 -0.9999943
v -50 8.750001 -0.9999943
v -50 -5 -22.99999
v -50 8.750001 -22.99999
v -72 -5 -22.99999
v -72 8.750001 -22.99999
v -42 -3 501.0001
v -42 -5 501.0001
v -40 -5 501.0001
v -40 -3 501.0001
v -42 38 501.0001
v -40 38 501.0001
v -40 40 501.0001
v -42 40 501.0001
v -83 -3 501.0001
v -83 -5 501.0001
v -81 -5 501.0001
v -81 -3 501.0001
v -83 38 501.0001
v -81 38 501.0001
v -81 40 501.0001
v -83 40 501.0001
v -40 -5 576.0001
v -83 -5 576.0001
v -83 40 576.0001
v -40 40 576.0001
v -81 38 574.0001
v -81 -3 574.0001
v -42 -3 574.0001
v -42 38 574.0001
v -40 -5 346
v -83 -5 346
v -83 1 346
v -40 1 346
v -40 -5 296
v -40 1 296
v -83 -5 296
v -83 1 296
# Vertex UVs: 97
vt 12 -0.9999999
vt -9.499999 -1
vt -9.499995 2
vt 12.00001 2
vt 11.5 -0.9999999
vt -26.00001 -1
vt -26.00002 2
vt 11.49998 2
vt 27 -1
vt -10.5 -0.9999999
vt -10.5 2
vt 27 2
vt 10.5 -0.9999998
vt -11 -1
vt -11.00001 2
vt 10.5 2
vt 11.99999 -10.5
vt -9.500017 -10.5
vt -9.49994 26.99999
vt 12.00006 26.99999
vt 11.5 -11.00002
vt -26 -10.99996
vt -26.00002 10.50004
vt 11.49998 10.49997
vt 1.500001 -0.9999999
vt -9.499995 5.875
vt 1.500005 5.875
vt 0.4999982 -1
vt 0.4999983 5.875
vt 11.5 5.875
vt -10.5 5.875
vt -0.500001 -0.9999996
vt -0.500012 5.875
vt 10.49999 5.875
vt 1.499985 -10.5
vt -9.499997 0.5000019
vt 1.500005 0.5
vt 11.5 -0.5000207
vt 0.4999981 -0.5000034
vt 0.4999981 10.5
vt 11.5 10.49998
vt -10 -1.443757E-07
vt -10 -1
vt -11 -1.443757E-07
vt -10.00001 20.5
vt -11.00001 20.5
vt -11.00001 21.5
vt -10.00001 21.5
vt 10.5 8.344651E-08
vt 9.5 -0.9999998
vt 9.5 8.344651E-08
vt 10.49999 20.5
vt 9.499994 20.5
vt 9.499994 21.5
vt 10.49999 21.5
vt -9.499961 21.5
vt 12.00004 21.5
vt -26.00014 21.5
vt 11.49986 21.5
vt -10.49998 21.5
vt 27.00002 21.5
vt -8.499963 20.5
vt -8.499998 -1.490116E-07
vt 11.00001 0
vt 11.00004 20.5
vt 11.49999 1.490116E-07
vt 11.49987 20.5
vt -25.00013 20.5
vt -25.00001 0
vt 26 0
vt 26.00002 20.5
vt -10.49998 20.5
vt -10.49999 1.192093E-07
vt -8.499943 25.99999
vt -8.500016 -10.49999
vt 10.99999 -10.5
vt 11.00006 25.99999
vt 11.49998 9.499975
vt -25.00002 9.500039
vt -25 -9.999958
vt 11.49999 -10.00002
vt 3.499996 -1
vt -21.5 -1
vt -21.50002 2
vt 3.499973 2
vt 22.5 -1
vt -2.499996 -1
vt -2.499995 2
vt 22.5 2
vt 12 -2.5
vt -9.500001 -2.499997
vt -9.499951 22.49999
vt 12.00006 22.49999
vt 3.499995 -11.00001
vt -21.5 -10.99996
vt -21.50002 10.50003
vt 3.499975 10.49999
# Vertex Normals: 6
vn 0 0 1
vn 1 0 0
vn -1 0 0
vn 0 0 -1
vn 0 -1 0
vn 0 1 0
# Faces: 36
f 4/4/1 3/3/1 2/2/1 1/1/1 
f 6/8/2 4/7/2 1/6/2 5/5/2 
f 3/12/3 8/11/3 7/10/3 2/9/3 
f 8/16/4 6/15/4 5/14/4 7/13/4 
f 1/20/5 2/19/5 7/18/5 5/17/5 
f 8/24/6 3/23/6 4/22/6 6/21/6 
f 12/27/1 11/26/1 10/2/1 9/25/1 
f 14/30/2 12/29/2 9/28/2 13/5/2 
f 11/29/3 16/31/3 15/10/3 10/28/3 
f 16/34/4 14/33/4 13/32/4 15/13/4 
f 9/37/5 10/36/5 15/18/5 13/35/5 
f 16/41/6 11/40/6 12/39/6 14/38/6 
f 20/44/4 19/14/4 18/43/4 17/42/4 
f 24/48/4 23/47/4 22/46/4 21/45/4 
f 22/46/4 20/44/4 17/42/4 21/45/4 
f 28/51/4 27/50/4 26/13/4 25/49/4 
f 32/55/4 31/54/4 30/53/4 29/52/4 
f 30/53/4 28/51/4 25/49/4 29/52/4 
f 17/42/4 18/43/4 27/50/4 28/51/4 
f 31/54/4 24/48/4 21/45/4 30/53/4 
f 36/57/1 35/56/1 34/2/1 33/1/1 
f 23/59/2 36/58/2 33/6/2 19/5/2 
f 35/61/3 32/60/3 26/10/3 34/9/3 
f 33/20/5 34/19/5 26/18/5 19/17/5 
f 32/24/6 35/23/6 36/22/6 23/21/6 
f 40/65/4 39/64/4 38/63/4 37/62/4 
f 39/69/3 40/68/3 21/67/3 17/66/3 
f 28/73/2 30/72/2 37/71/2 38/70/2 
f 39/77/6 17/76/6 28/75/6 38/74/6 
f 21/81/5 40/80/5 37/79/5 30/78/5 
f 44/4/1 43/3/1 42/2/1 41/1/1 
f 46/85/2 44/84/2 41/83/2 45/82/2 
f 43/89/3 48/88/3 47/87/3 42/86/3 
f 48/16/4 46/15/4 45/14/4 47/13/4 
f 41/93/5 42/92/5 47/91/5 45/90/5 
f 48/97/6 43/96/6 44/95/6 46/94/6 


