g Mesh1
# Vertex Positions: 62
v -40 -5 62.00001
v -83 -5 62.00001
v -83 1 62.00001
v -40 1 62.00001
v -40 -5 40.00001
v -40 1 40.00001
v -83 -5 40.00001
v -83 1 40.00001
v -50 -5 -0.9999943
v -72 -5 -0.9999943
v -72 8.750001 -0.9999943
v -50 8.750001 -0.9999943
v -50 -5 -22.99999
v -50 8.750001 -22.99999
v -72 -5 -22.99999
v -72 8.750001 -22.99999
v -217 -25 286.5
v -279 -25 286.5
v -279 -19 286.5
v -217 -19 286.5
v -217 -25 199.5
v -217 -19 199.5
v -279 -25 199.5
v -279 -19 199.5
v -228 27.5 364
v -228 27.5 438.5
v -228 33.5 438.5
v -228 33.5 364
v -290 27.5 438.5
v -290 27.5 364
v -290 33.5 364
v -290 33.5 438.5
v -102 -89.49999 153.5
v -305 -89.49999 153.5
v -305 101 153.5
v -102 101 153.5
v -102 -89.49999 113.5
v -102 101 113.5
v -305 -89.49999 113.5
v -305 101 113.5
v -228 49.5 438.5
v -290 49.5 438.5
v -228 27.5 451.5
v -290 27.5 451.5
v -290 49.5 451.5
v -228 49.5 451.5
v -71 30 329
v -108.5 30 329
v -108.5 36 329
v -71 36 329
v -71 30 258
v -71 36 258
v -108.5 30 258
v -108.5 36 258
v -180 -89.49999 489.5
v -180 -89.49999 286.5
v -180 101 286.5
v -180 101 489.5
v -140 -89.49999 489.5
v -140 101 489.5
v -140 -89.49999 286.5
v -140 101 286.5
# Vertex UVs: 127
vt 12 -0.9999999
vt -9.499999 -1
vt -9.499995 2
vt 12.00001 2
vt 11.5 -0.9999999
vt 0.4999982 -1
vt 0.4999982 2
vt 11.5 2
vt -10.5 -0.9999999
vt -10.5 2
vt 10.5 -0.9999998
vt -11 -1
vt -11.00001 2
vt 10.5 2
vt 11.99999 -10.5
vt -9.500017 -10.5
vt -9.499997 0.5000019
vt 12.00001 0.5000004
vt 11.5 -11.00002
vt 0.4999981 -11
vt 0.4999981 10.5
vt 11.5 10.49998
vt 1.500001 -0.9999999
vt -9.499995 5.875
vt 1.500005 5.875
vt 0.4999983 5.875
vt 11.5 5.875
vt -10.5 5.875
vt -0.500001 -0.9999996
vt -0.500012 5.875
vt 10.49999 5.875
vt 1.499985 -10.5
vt 1.500005 0.5
vt 11.5 -0.5000207
vt 0.4999981 -0.5000034
vt 21.50001 -0.9999996
vt 21.50002 2
vt 17.25001 -0.9999997
vt -26.25001 -1
vt -26.25 2
vt 17.25002 2
vt 27.25 -1
vt -16.25001 -0.9999997
vt -16.25 2
vt 27.25001 1.999999
vt -20.50001 -1
vt -20.50001 2
vt 21.49999 -16.25
vt -9.50003 -16.25
vt -9.499948 27.25
vt 21.50007 27.24999
vt 17.25 -20.50003
vt -26.25001 -20.49996
vt -26.25 10.50004
vt 17.25001 10.49997
vt -20.00001 -1
vt -20 2
vt 21 -1
vt 21.00001 1.999999
vt 21.50006 20.99999
vt -9.499959 21
vt -20 -20.49997
vt -19.99999 10.50003
vt 28.24993 -60.49999
vt -73.25008 -60.49996
vt -73.24996 34.74998
vt 28.25005 34.74995
vt 20.50001 -60.49888
vt 0.4999984 -60.49997
vt 0.4999981 34.74998
vt 20.50001 34.75107
vt 0.4999486 -60.49999
vt -19.50005 -60.49876
vt -19.49997 34.75116
vt 0.5000324 34.74994
vt 74.25005 -60.50008
vt -27.24999 -60.49993
vt -27.25001 34.74998
vt 74.25004 34.74983
vt 28.24784 -19.50002
vt -73.25229 -19.50002
vt -73.25 0.5000014
vt 28.25012 0.5000052
vt 20.50004 -27.25003
vt 0.499998 -27.25001
vt 0.4999985 74.25004
vt 20.50004 74.25002
vt -20.50001 10
vt 10.50001 10
vt -9.499986 10
vt 21.50003 10
vt 5.000006 -1
vt -1.499997 -1
vt -1.500009 10
vt 4.999994 10
vt 2.499994 -1
vt -4.000006 -1
vt -3.999991 10
vt 2.500009 10
vt 21.50001 -4.000006
vt -9.500006 -4.000005
vt -9.499991 2.499995
vt 21.50002 2.499993
vt 5.000003 -20.50001
vt -1.499998 -20.5
vt -1.499996 10.5
vt 5.000005 10.49999
vt 18.00001 -0.9999996
vt -0.7499967 -0.9999999
vt -0.7499921 2
vt 18.00002 2
vt 15.00001 -0.9999998
vt 15.00001 2
vt -14 -0.9999998
vt -14 2
vt 1.749998 -0.9999999
vt -17.00001 -1
vt -17.00001 2
vt 1.750004 2
vt 17.99999 -14
vt -0.7500213 -14
vt -0.7499545 21.5
vt 18.00005 21.5
vt 15 -17.00003
vt -20.5 -16.99998
vt -20.5 1.750028
vt 15.00001 1.74998
# Vertex Normals: 6
vn 0 0 1
vn 1 0 0
vn -1 0 0
vn 0 0 -1
vn 0 -1 0
vn 0 1 0
# Faces: 47
f 4/4/1 3/3/1 2/2/1 1/1/1 
f 6/8/2 4/7/2 1/6/2 5/5/2 
f 3/7/3 8/10/3 7/9/3 2/6/3 
f 8/14/4 6/13/4 5/12/4 7/11/4 
f 1/18/5 2/17/5 7/16/5 5/15/5 
f 8/22/6 3/21/6 4/20/6 6/19/6 
f 12/25/1 11/24/1 10/2/1 9/23/1 
f 14/27/2 12/26/2 9/6/2 13/5/2 
f 11/26/3 16/28/3 15/9/3 10/6/3 
f 16/31/4 14/30/4 13/29/4 15/11/4 
f 9/33/5 10/17/5 15/16/5 13/32/5 
f 16/22/6 11/21/6 12/35/6 14/34/6 
f 20/37/1 19/3/1 18/2/1 17/36/1 
f 22/41/2 20/40/2 17/39/2 21/38/2 
f 19/45/3 24/44/3 23/43/3 18/42/3 
f 24/14/4 22/47/4 21/46/4 23/11/4 
f 17/51/5 18/50/5 23/49/5 21/48/5 
f 24/55/6 19/54/6 20/53/6 22/52/6 
f 28/41/2 27/57/2 26/56/2 25/38/2 
f 32/59/3 31/44/3 30/43/3 29/58/3 
f 29/61/5 30/49/5 25/48/5 26/60/5 
f 31/55/6 32/63/6 27/62/6 28/52/6 
f 31/14/4 28/47/4 25/46/4 30/11/4 
f 36/67/1 35/66/1 34/65/1 33/64/1 
f 38/71/2 36/70/2 33/69/2 37/68/2 
f 35/75/3 40/74/3 39/73/3 34/72/3 
f 40/79/4 38/78/4 37/77/4 39/76/4 
f 33/83/5 34/82/5 39/81/5 37/80/5 
f 40/87/6 35/86/6 36/85/6 38/84/6 
f 42/89/4 41/88/4 27/47/4 32/14/4 
f 46/91/1 45/90/1 44/2/1 43/36/1 
f 41/95/2 46/94/2 43/93/2 26/92/2 
f 45/99/3 42/98/3 29/97/3 44/96/3 
f 43/103/5 44/102/5 29/101/5 26/100/5 
f 42/107/6 45/106/6 46/105/6 41/104/6 
f 50/111/1 49/110/1 48/109/1 47/108/1 
f 52/113/2 50/47/2 47/46/2 51/112/2 
f 49/37/3 54/115/3 53/114/3 48/36/3 
f 54/119/4 52/118/4 51/117/4 53/116/4 
f 47/123/5 48/122/5 53/121/5 51/120/5 
f 54/127/6 49/126/6 50/125/6 52/124/6 
f 58/67/3 57/66/3 56/65/3 55/64/3 
f 60/71/1 58/70/1 55/69/1 59/68/1 
f 57/75/4 62/74/4 61/73/4 56/72/4 
f 62/79/2 60/78/2 59/77/2 61/76/2 
f 55/83/5 56/82/5 61/81/5 59/80/5 
f 62/87/6 57/86/6 58/85/6 60/84/6 


