g Mesh1
# Vertex Positions: 24
v -40 -5 115
v -83 -5 115
v -83 1 115
v -40 1 115
v -40 -5 40.00001
v -40 1 40.00001
v -83 -5 40.00001
v -83 1 40.00001
v -50 -5 -0.9999943
v -72 -5 -0.9999943
v -72 8.750001 -0.9999943
v -50 8.750001 -0.9999943
v -50 -5 -22.99999
v -50 8.750001 -22.99999
v -72 -5 -22.99999
v -72 8.750001 -22.99999
v -40 -5 584
v -83 -5 584
v -83 1 584
v -40 1 584
v -40 -5 509
v -40 1 509
v -83 -5 509
v -83 1 509
# Vertex UVs: 41
vt 12 -0.9999999
vt -9.499999 -1
vt -9.499995 2
vt 12.00001 2
vt 11.5 -0.9999999
vt -26.00001 -1
vt -26.00002 2
vt 11.49998 2
vt 27 -1
vt -10.5 -0.9999999
vt -10.5 2
vt 27 2
vt 10.5 -0.9999998
vt -11 -1
vt -11.00001 2
vt 10.5 2
vt 11.99999 -10.5
vt -9.500017 -10.5
vt -9.49994 26.99999
vt 12.00006 26.99999
vt 11.5 -11.00002
vt -26 -10.99996
vt -26.00002 10.50004
vt 11.49998 10.49997
vt 1.500001 -0.9999999
vt -9.499995 5.875
vt 1.500005 5.875
vt 0.4999982 -1
vt 0.4999983 5.875
vt 11.5 5.875
vt -10.5 5.875
vt -0.500001 -0.9999996
vt -0.500012 5.875
vt 10.49999 5.875
vt 1.499985 -10.5
vt -9.499997 0.5000019
vt 1.500005 0.5
vt 11.5 -0.5000207
vt 0.4999981 -0.5000034
vt 0.4999981 10.5
vt 11.5 10.49998
# Vertex Normals: 6
vn 0 0 1
vn 1 0 0
vn -1 0 0
vn 0 0 -1
vn 0 -1 0
vn 0 1 0
# Faces: 18
f 4/4/1 3/3/1 2/2/1 1/1/1 
f 6/8/2 4/7/2 1/6/2 5/5/2 
f 3/12/3 8/11/3 7/10/3 2/9/3 
f 8/16/4 6/15/4 5/14/4 7/13/4 
f 1/20/5 2/19/5 7/18/5 5/17/5 
f 8/24/6 3/23/6 4/22/6 6/21/6 
f 12/27/1 11/26/1 10/2/1 9/25/1 
f 14/30/2 12/29/2 9/28/2 13/5/2 
f 11/29/3 16/31/3 15/10/3 10/28/3 
f 16/34/4 14/33/4 13/32/4 15/13/4 
f 9/37/5 10/36/5 15/18/5 13/35/5 
f 16/41/6 11/40/6 12/39/6 14/38/6 
f 20/4/1 19/3/1 18/2/1 17/1/1 
f 22/8/2 20/7/2 17/6/2 21/5/2 
f 19/12/3 24/11/3 23/10/3 18/9/3 
f 24/16/4 22/15/4 21/14/4 23/13/4 
f 17/20/5 18/19/5 23/18/5 21/17/5 
f 24/24/6 19/23/6 20/22/6 22/21/6 


