g Mesh1
# Vertex Positions: 75
v -40 -5 40.00001
v -40 -5 62.00001
v -40 1 62.00001
v -40 1 40.00001
v -83 -5 62.00001
v -83 -5 40.00001
v -83 1 40.00001
v -83 1 62.00001
v -64.99998 0.9999999 84
v -64.99998 6 84
v -64.99998 1 62
v -83 -5 84
v -83 6 84
v -64.99998 -5 62
v -64.99998 -5 84
v -40 -5 84
v -40 1 84
v -65 -5 62
v -65 -5 84
v -65 1 84
v -65 1 62
v -40 -5 106
v -40 1 106
v -65 -5 106
v -65 1 106
v -64.99998 0.9999999 106
v -83 0.9999999 106
v -83 6 106
v -64.99998 6 106
v -83 -5 106
v -64.99998 -5 106
v -58 -5 128
v -65 -5 128
v -65 1 128
v -58 1 128
v -40 -5 128
v -40 1 128
v -83 -5 128
v -83 1 128
v -66 5 121
v -74 5 121
v -74 6 121
v -66 6 121
v -66 5 113
v -66 6 113
v -74 5 113
v -74 6 113
v -32 -5 150
v -32 1 150
v -50 -5 150
v -50 1 150
v -40 -5 172
v -40 1 172
v -58 -5 172
v -58 1 172
v -64.99998 0.9999999 172
v -83 0.9999999 172
v -83 6 172
v -64.99998 6 172
v -64.99998 0.9999999 128
v -64.99998 6 128
v -83 6 128
v -64.99998 -5 128
v -64.99998 -5 172
v -83 -5 172
v -40 -5 194
v -40 1 194
v -83 -5 194
v -83 1 194
v -40 15 194
v -83 15 194
v -40 -5 200
v -83 -5 200
v -83 15 200
v -40 15 200
# Vertex UVs: 119
vt 11.5 -0.9999999
vt 0.4999982 -1
vt 0.4999982 2
vt 11.5 2
vt -10.5 -0.9999999
vt -10.5 2
vt 10.5 -0.9999998
vt -11 -1
vt -11.00001 2
vt 10.5 2
vt 11.99999 -10.5
vt -9.500017 -10.5
vt -9.499997 0.5000019
vt 12.00001 0.5000004
vt 11.5 -11.00002
vt 0.4999981 -11
vt 0.4999981 10.5
vt 11.5 10.49998
vt 0.4999982 4.5
vt -0.5000102 -10.5
vt -0.4999924 0.5000027
vt 11.48525 1.499972
vt 0.2610811 1.499992
vt 0.2610811 10.5
vt 11.48525 10.49998
vt 2.999984 -10.49999
vt 3.000003 0.5000065
vt 11.5 -2.000023
vt 0.4999982 -2.000003
vt 3.50001 2
vt -5.499997 2
vt -5.499995 4.5
vt 3.500012 4.5
vt 11.5 4.5
vt -10.5 4.5
vt 3.49999 -10.5
vt -5.500018 -10.5
vt -5.5 0.500001
vt 3.500008 0.5000005
vt 11.5 -2.500029
vt 0.5 -2.500009
vt 0.5 6.499999
vt 11.5 6.499979
vt -5.999998 -0.9999998
vt -9.499997 -1
vt -9.499996 2
vt -5.999997 2
vt -18.50001 -10.5
vt -18.5 0.4999987
vt 0.4999999 19.49999
vt 11.5 19.49997
vt -7.499995 1.5
vt -11.49999 1.5
vt -11.49999 2
vt -7.499995 2
vt 11.5 1.5
vt 7.5 1.5
vt 7.5 2
vt -6.5 1.5
vt -10.5 1.5
vt -6.5 2
vt 12.5 1.5
vt 8.499995 1.5
vt 8.499994 2
vt 12.5 2
vt -7.500013 -10.5
vt -11.50001 -10.5
vt -11.50001 -6.499998
vt -7.500007 -6.499998
vt 11.5 8.499974
vt 7.500001 8.499979
vt 7.5 12.49998
vt 11.5 12.49997
vt -0.09277246 -0.9999995
vt -0.09277269 2
vt 1.09277 -0.9999998
vt 1.092772 2
vt -6.000015 -10.5
vt -1.999998 0.5000017
vt 7.000001 0.5000035
vt 0.5 -6.000003
vt 0.5 2.999997
vt 11.5 6.999978
vt 0.1337184 -0.9999977
vt 0.1337176 2
vt 0.8662668 -0.9999979
vt 0.8662672 2.000002
vt -9.999998 0.4999998
vt -0.999999 0.5000015
vt 0.4999999 11
vt 6.499995 2
vt -2.500011 2
vt -2.500016 4.5
vt 6.49999 4.499999
vt -5.499984 11.5
vt 3.500023 11.5
vt -10.5 -2.499989
vt -10.5 6.50002
vt 7.000001 -0.9999995
vt 6.999996 1.999999
vt 10.49999 1.999999
vt 19.5 2
vt -2.000006 2
vt -2.000019 8.999999
vt 19.49998 8.999998
vt 3.000001 -0.9999995
vt -18.5 -1
vt -18.49999 9.000001
vt 3.000004 9.000002
vt 8.5 -0.9999998
vt 8.5 9.000001
vt 11.5 9.000001
vt -7.500001 -0.9999998
vt -10.5 9.000001
vt -7.500004 9.000001
vt -18.50001 -7.499998
vt 2.999989 -7.499997
vt 8.499999 -2.000017
vt 8.5 19.49999
# Vertex Normals: 11
vn 1 0 0
vn -1 0 0
vn 0 0 -1
vn 0 -1 0
vn 0 1 0
vn 0 0.9751328 -0.2216211
vn 0 0 1
vn 0.9397935 0 -0.3417431
vn -0.9397935 0 0.3417431
vn 0.9397934 0 0.3417431
vn -0.9397934 0 -0.3417431
# Faces: 56
f 4/4/1 3/3/1 2/2/1 1/1/1 
f 8/3/2 7/6/2 6/5/2 5/2/2 
f 7/10/3 4/9/3 1/8/3 6/7/3 
f 2/14/4 5/13/4 6/12/4 1/11/4 
f 7/18/5 8/17/5 3/16/5 4/15/5 
f 11/4/1 10/19/1 9/3/1 
f 13/19/2 8/6/2 5/5/2 12/2/2 
f 15/21/4 12/13/4 5/12/4 14/20/4 
f 8/25/6 13/24/6 10/23/6 11/22/6 
f 3/4/1 17/3/1 16/2/1 2/1/1 
f 16/27/4 19/13/4 18/12/4 2/26/4 
f 21/18/5 20/17/5 17/29/5 3/28/5 
f 17/4/1 23/3/1 22/2/1 16/1/1 
f 22/27/4 24/13/4 19/12/4 16/26/4 
f 20/18/5 25/17/5 23/29/5 17/28/5 
f 29/33/7 28/32/7 27/31/7 26/30/7 
f 10/34/1 29/19/1 26/3/1 9/4/1 
f 28/19/2 13/35/2 12/5/2 30/2/2 
f 31/39/4 30/38/4 12/37/4 15/36/4 
f 13/43/5 28/42/5 29/41/5 10/40/5 
f 35/47/7 34/46/7 33/45/7 32/44/7 
f 23/4/1 37/3/1 36/2/1 22/1/1 
f 39/3/2 27/6/2 30/5/2 38/2/2 
f 36/27/4 38/49/4 30/48/4 22/26/4 
f 27/51/5 39/50/5 37/29/5 23/28/5 
f 43/55/7 42/54/7 41/53/7 40/52/7 
f 45/4/1 43/58/1 40/57/1 44/56/1 
f 42/61/2 47/6/2 46/60/2 41/59/2 
f 47/65/3 45/64/3 44/63/3 46/62/3 
f 40/69/4 41/68/4 46/67/4 44/66/4 
f 47/73/5 42/72/5 43/71/5 45/70/5 
f 37/4/8 49/75/8 48/74/8 36/1/8 
f 51/77/9 35/6/9 32/5/9 50/76/9 
f 48/80/4 50/79/4 32/78/4 36/26/4 
f 35/83/5 51/82/5 49/81/5 37/28/5 
f 49/4/10 53/85/10 52/84/10 48/1/10 
f 55/87/11 51/6/11 50/5/11 54/86/11 
f 52/89/4 54/88/4 50/78/4 48/26/4 
f 51/83/5 55/90/5 53/3/5 49/28/5 
f 59/33/7 58/32/7 57/31/7 56/30/7 
f 62/94/3 61/93/3 60/92/3 39/91/3 
f 61/34/1 59/35/1 64/5/1 63/1/1 
f 58/34/2 62/35/2 38/5/2 65/1/2 
f 64/96/4 65/95/4 38/37/4 63/36/4 
f 62/43/5 58/98/5 59/97/5 61/40/5 
f 56/101/3 55/100/3 54/99/3 64/7/3 
f 53/4/1 67/3/1 66/2/1 52/1/1 
f 69/3/2 57/6/2 65/5/2 68/2/2 
f 66/27/4 68/49/4 65/48/4 52/26/4 
f 57/51/5 69/50/5 67/29/5 53/28/5 
f 71/105/3 70/104/3 67/103/3 69/102/3 
f 75/109/7 74/108/7 73/107/7 72/106/7 
f 70/112/1 75/111/1 72/110/1 66/1/1 
f 74/115/2 71/114/2 68/5/2 73/113/2 
f 72/117/4 73/116/4 68/48/4 66/26/4 
f 71/51/5 74/119/5 75/118/5 70/28/5 


