g Mesh1
# Vertex Positions: 262
v -40 -5 40.00001
v -40 -5 62.00001
v -40 1 62.00001
v -40 1 40.00001
v -83 -5 62.00001
v -83 -5 40.00001
v -83 1 40.00001
v -83 1 62.00001
v -45 -5 84.00001
v -45 1 84.00001
v -78 -5 84.00001
v -78 1 84.00001
v -61.5 -5 156.6
v -63.40909 -5 165
v -59.59091 -5 165
v -61.5 1 156.6
v -59.59091 1 165
v -63.40909 1 165
v -55 -5 141.2069
v -55 -5 130.5
v -55.56818 -5 130.5
v -58.92418 -5 145.2664
v -55 -5 129.5
v -55 -5 128
v -55.34091 -5 129.5
v -55 1 130.5
v -55 1 141.2069
v -58.92418 1 145.2664
v -55.56818 1 130.5
v -55 1 129.5
v -55.34091 1 129.5
v -55 1 128
v -45 -0.499999 130.5
v -45 -5 130.5
v -45 -5 130.8621
v -45 -0.499999 130.8621
v -45 -0.499999 129.5
v -45 -0.499999 87.50001
v -45 -5 87.50001
v -45 -5 129.5
v -45.79546 -5 87.50001
v -45 1 130.8621
v -45 1 130.5
v -45 1 129.5
v -45 1 87.50001
v -45.79546 1 87.50001
v -45 -0.499999 84
v -45 -5 86.50001
v -45 -0.499999 86.50001
v -45.56818 -5 86.50001
v -45 1 86.50001
v -45.56818 1 86.50001
v -55 -5 165
v -55 1 165
v -45 -5 165
v -45 -0.499999 165
v -45 1 165
v -68 -5 130.5
v -68 -5 154.6552
v -63.09518 -5 149.5812
v -67.43182 -5 130.5
v -68 -5 129.5
v -67.65909 -5 129.5
v -68 -5 128
v -68 1 130.5
v -67.43182 1 130.5
v -63.09518 1 149.5812
v -68 1 154.6552
v -68 1 129.5
v -68 1 128
v -67.65909 1 129.5
v -78 -0.499999 130.5
v -78 -0.499999 165
v -78 -5 165
v -78 -5 130.5
v -78 -0.499999 129.5
v -78 -5 129.5
v -78 -5 87.50001
v -78 -0.499999 87.50001
v -77.20454 -5 87.50001
v -78 1 130.5
v -78 1 165
v -78 1 87.50001
v -78 1 129.5
v -77.20454 1 87.50001
v -78 -0.499999 86.50001
v -78 -5 86.50001
v -78 -0.499999 84
v -77.43182 -5 86.50001
v -78 1 86.50001
v -77.43182 1 86.50001
v -68 -5 165
v -68 1 165
v -55 -5 87.50001
v -68 -5 87.50001
v -68 1 87.50001
v -55 1 87.50001
v -68 -5 86.50001
v -55 -5 86.50001
v -55 -5 84
v -68 -5 84
v -55 1 86.50001
v -68 1 86.50001
v -68 1 84
v -55 1 84
v -107 -5 228
v -107 1 228
v -107 -5 195
v -107 1 195
v -166 -3.499998 195
v -166 -5 195
v -159 -5 195
v -159 -3.499998 195
v -166 -5 210
v -159 -5 210
v -188 -5 195
v -188 -5 210
v -159 1 195
v -166 1 195
v -159 1 210
v -166 1 210
v -188 1 210
v -188 1 195
v -166 -5 227
v -159 -5 227
v -188 -5 227
v -159 1 227
v -166 1 227
v -188 1 227
v -166 -3.499998 228
v -159 -3.499998 228
v -159 -5 228
v -166 -5 228
v -188 -5 228
v -188 -3.499998 228
v -166 1 228
v -159 1 228
v -188 1 228
v -107.5 -3.499998 195
v -107.5 -5 195
v -107 -3.499998 195
v -107.5 -5 195.5172
v -108.5 -3.499998 195
v -108.5 -5 195
v -121.5 -5 210
v -108.5 -5 196.5517
v -107.5 1 195
v -107.5 1 195.5172
v -108.5 1 195
v -108.5 1 196.5517
v -121.5 1 210
v -137.9333 -5 227
v -137.9333 1 227
v -107.5 -5 210
v -107 -5 210
v -108.5 -5 210
v -107 1 210
v -107.5 1 210
v -108.5 1 210
v -107.5 -5 227
v -107 -5 227
v -108.5 -5 227
v -107 1 227
v -107.5 1 227
v -108.5 1 227
v -40.56453 1 212
v -71 1 239.2856
v -71 1 226.2856
v -55.56454 1 212
v -71 -5 242
v -71 -5 226.2856
v -71 1 242
v -38 -5 212
v -38 1 212
v -55.56454 -5 212
v -71 1 239.2856
v -71 14 239.2856
v -71 14 242
v -38 14 212
v -40.56454 1 212
v -40.56454 14 212
v -50 -5 -0.9999943
v -72 -5 -0.9999943
v -72 8.750001 -0.9999943
v -50 8.750001 -0.9999943
v -50 -5 -22.99999
v -50 8.750001 -22.99999
v -72 -5 -22.99999
v -72 8.750001 -22.99999
v -78 -11.5 87.50001
v -105 -11.5 87.50001
v -105 -5 87.50001
v -78 -11.5 86.50001
v -105 -5 86.50001
v -105 -11.5 86.50001
v -105 1 87.50001
v -105 16.5 87.50001
v -78 16.5 87.50001
v -78 16.5 86.50001
v -105 16.5 86.50001
v -105 1 86.50001
v -68 -11.5 87.50001
v -68 -11.5 86.50001
v -68 16.5 87.50001
v -68 16.5 86.50001
v -55 18.5 130.5
v -55 18.5 129.5
v -45 18.5 130.5
v -45 18.5 129.5
v -159 -5 228
v -159 -11.49998 228
v -159 -11.49998 227
v -137.9333 -11.49998 227
v -137.9333 -5 227
v -159 38.50002 228
v -159 15.5 228
v -159 15.5 227
v -159 38.50002 227
v -137.9333 15.5 227
v -137.9333 38.50002 227
v -159 1 228
v -137.9333 1 227
v -107 -11.49998 228
v -107 -5 228
v -107 -11.49998 227
v -107.5 -11.49998 227
v -108.5 -11.49998 227
v -107 15.5 228
v -107 38.50002 228
v -107 38.50002 227
v -107 15.5 227
v -107.5 15.5 227
v -107.5 38.50002 227
v -108.5 15.5 227
v -108.5 38.50002 227
v -107 1 228
v -107.5 15.5 210
v -108.5 15.5 210
v -186.5 1 173
v -166 1 173
v -166 1 174
v -186.5 1 174
v -187.5 1 173
v -187.5 1 174
v -188 1 174
v -188 1 173
v -186.5 1 191
v -166 1 191
v -166 1 195
v -186.5 1 195
v -187.5 1 191
v -187.5 1 195
v -188 1 195
v -188 1 191
v -166 -5 173
v -166 -5 195
v -188 -5 195
v -188 -5 173
v -186.5 15.5 174
v -187.5 15.5 174
v -186.5 15.5 191
v -187.5 15.5 191
# Vertex UVs: 388
vt 11.5 -0.9999999
vt 0.4999982 -1
vt 0.4999982 2
vt 11.5 2
vt -10.5 -0.9999999
vt -10.5 2
vt 10.5 -0.9999998
vt -11 -1
vt -11.00001 2
vt 10.5 2
vt 11.99999 -10.5
vt -9.500017 -10.5
vt -9.499997 0.5000019
vt 12.00001 0.5000004
vt 11.5 -11.00002
vt 0.4999981 -11
vt 0.4999981 10.5
vt 11.5 10.49998
vt 0.298524 -0.9999989
vt 0.2985236 2
vt 0.5308294 -0.9999956
vt 0.5308323 2.000004
vt -6.999997 0.5000016
vt 9.500007 0.5000007
vt 0.4999981 -8.500003
vt 0.4999982 7.999997
vt 1.250049 25.79999
vt 0.2955109 29.99999
vt 2.204602 29.99999
vt -24.8 -0.2499541
vt -29 -1.204491
vt -29 0.7045988
vt 4.500035 18.10344
vt 4.500026 12.75
vt 4.215935 12.75
vt 2.537951 20.13318
vt 4.500025 12.25
vt 4.500023 11.5
vt 4.32957 12.25
vt -11.75 -3.499977
vt -17.10344 -3.499967
vt -19.13319 -1.537876
vt -11.75 -3.215886
vt -11.25 -3.499978
vt -11.25 -3.329524
vt -10.5 -3.499979
vt -11.75001 1.250001
vt -11.75001 -1
vt -11.93103 -1
vt -11.93103 1.250001
vt 9.500028 12.93102
vt 9.500028 12.75
vt -11.25001 1.250001
vt 9.749994 1.250001
vt 9.749997 -0.9999999
vt -11.25001 -1
vt 9.500027 12.25
vt 9.49999 -8.749997
vt 9.102262 -8.749996
vt -11.93103 2
vt -11.75001 2
vt -11.75001 -8.499976
vt -11.93103 -8.499976
vt -11.25001 2
vt 9.749993 2
vt 9.749994 -8.102289
vt 9.749995 -8.500017
vt -11.25001 -8.499977
vt 11.5 1.250001
vt 10.25 -0.9999999
vt 10.24999 1.250001
vt 9.499989 -9.249997
vt 9.499987 -10.5
vt 9.215897 -9.249996
vt 10.24999 2
vt 10.24999 -8.215926
vt 11.5 -8.500021
vt 10.25 -8.500018
vt 4.500056 29.99999
vt -28.99999 -3.499945
vt -29 -1
vt -29 1.25
vt 9.500057 29.99998
vt -29 2
vt -28.99999 -8.499944
vt -1.999975 12.75
vt -1.999954 24.82757
vt 0.4524531 22.2906
vt -1.715883 12.75
vt -1.999976 12.25
vt -1.82952 12.25
vt -1.999977 11.49999
vt -11.75 3.000021
vt -11.75 2.715929
vt -21.2906 0.5476288
vt -23.82758 3.000045
vt -11.25 3.000021
vt -10.5 3.000019
vt -11.25 2.829564
vt 12.75 1.25
vt 29.99999 1.25
vt 29.99999 -1
vt 12.75 -1
vt -6.999975 12.75
vt -6.999946 29.99999
vt 12.25 1.25
vt 12.25 -1
vt -8.749997 -0.9999999
vt -8.749995 1.250001
vt -6.602284 -8.749995
vt -7.000012 -8.749995
vt -6.999976 12.25
vt 12.75 2
vt 29.99999 2
vt -29 8.000052
vt -11.75001 8.00002
vt -8.749995 2
vt 12.25 2
vt 9.74999 7.602251
vt -11.25001 8.000019
vt 9.749989 7.999979
vt -9.249995 1.250001
vt -9.249997 -0.9999999
vt -10.5 1.250001
vt -6.715921 -9.249995
vt -7.000015 -10.5
vt -7.000013 -9.249995
vt -9.249995 2
vt 10.24999 7.715886
vt 10.24999 7.999978
vt 11.49999 7.999975
vt -1.999945 29.99999
vt -29 3.000054
vt 4.499989 -8.749996
vt -2.000012 -8.749996
vt 9.749991 2.999979
vt 9.749993 -3.500018
vt -2.000012 -9.249996
vt 4.499988 -9.249996
vt 4.499986 -10.5
vt -2.000015 -10.5
vt 10.24999 -3.50002
vt 10.24999 2.999979
vt 11.49999 2.999976
vt 11.5 -3.500022
vt -32.03648 -0.9998416
vt -32.03359 1.999995
vt 9.637968 -0.9999601
vt 9.637971 2.00004
vt -21.49998 4.499991
vt -21.49994 20.99998
vt -20.00002 22.50001
vt -3.49997 22.49997
vt 18.99999 -0.2499992
vt 18.99999 -1
vt 15.49999 -1
vt 15.49999 -0.2499992
vt 0.5000439 18.99999
vt 0.5000378 15.49999
vt -6.99997 15.49999
vt -6.999964 18.99999
vt 0.5000631 29.99999
vt 15.49999 2
vt 18.99999 2
vt -14.5 0.5000192
vt -18 0.5000259
vt -18 8.000031
vt -14.5 8.000025
vt -29 0.5000468
vt 9.000046 18.99999
vt 9.000039 15.49999
vt 9.000065 29.99998
vt -14.5 -7.999979
vt -17.99999 -7.999972
vt -28.99999 -7.999951
vt -18 -0.2499991
vt -14.5 -0.249999
vt -14.5 -1
vt -18 -1
vt 9.500038 18.99999
vt 9.500031 15.49999
vt -29 -0.2499992
vt -18 2
vt -14.5 2
vt -14.5 -8.499971
vt -17.99999 -8.499965
vt -10.25 -0.2499989
vt -10.25 -0.9999999
vt -10.5 -0.2499989
vt -6.741394 -10.25
vt -7.000015 -10.25
vt -9.749999 -0.2499989
vt -9.75 -0.9999999
vt 0.5000055 -3.249996
vt -6.224152 -9.749998
vt -7.000014 -9.749998
vt -10.25 2
vt 11.24999 7.741355
vt 11.24999 7.999976
vt -9.749998 2
vt 10.74999 7.224114
vt 4.249991 0.4999835
vt 10.74999 7.999977
vt 9.000021 4.966665
vt -3.966669 -7.999999
vt 0.4999934 -10.25
vt 0.499993 -10.5
vt 0.4999943 -9.749999
vt 11.5 0.4999696
vt 11.25 0.4999701
vt 10.75 0.499971
vt 8.999994 -10.25
vt 8.999994 -10.5
vt 8.999995 -9.750004
vt 11.5 -8.000029
vt 11.25 -8.000028
vt 10.75 -8.000027
vt 9.500003 -0.9999999
vt -7 -0.9999999
vt -6.999995 2
vt 9.500007 2
vt 7.500021 3.782233
vt -6.142806 18.99998
vt 0.3572193 18.99996
vt 7.500039 11.28223
vt -33.18032 -0.9999968
vt -40.49672 -1.000013
vt -40.49658 1.999972
vt -33.18018 1.999989
vt 0.8401832 -0.9999534
vt -21.05757 -0.9998604
vt -21.05438 1.999951
vt 0.84338 1.999858
vt 4.690657 -0.9999602
vt -5.428017 -0.9999769
vt -5.427958 2.000009
vt 4.690716 2.000026
vt 11.28227 -0.9999993
vt 2.499997 -0.9999995
vt 2.499993 2
vt 11.28227 2
vt -1.500005 -6.500006
vt -10.28228 -6.500003
vt -17.99999 0.6428087
vt -17.99997 8.49999
vt -33.80336 -0.999996
vt -33.80276 5.499962
vt -33.17972 5.499961
vt -21.05065 5.499732
vt 0.8471031 5.499639
vt 9.128272 -0.9999487
vt -10.30685 -0.9999776
vt -10.30664 5.499978
vt 9.128482 5.500007
vt 3.426964 -0.9999979
vt 2.499988 5.5
vt 3.426954 5.500001
vt 7.500018 2.499969
vt -7.49999 18.99999
vt -6.142799 18.99998
vt 1.500001 -0.9999999
vt -9.499999 -1
vt -9.499995 5.875
vt 1.500005 5.875
vt 0.4999983 5.875
vt 11.5 5.875
vt -10.5 5.875
vt -0.500001 -0.9999996
vt -0.500012 5.875
vt 10.49999 5.875
vt 1.499985 -10.5
vt 1.500005 0.5
vt 11.5 -0.5000207
vt 0.4999981 -0.5000034
vt -6.00002 -8.750002
vt -6.000029 -12
vt -19.50004 -12.00001
vt -19.50003 -8.750005
vt 13 6.999982
vt 9.749996 6.999987
vt 9.749994 20.5
vt 12.99999 20.49999
vt -6.000012 -5.750001
vt -19.50002 -5.750004
vt -19.5 1.999999
vt -5.999991 2.000001
vt 6.749997 6.999991
vt -1.000002 7.000003
vt -1.000004 20.50001
vt 6.749995 20.5
vt 13 -0.9999994
vt 9.749997 -0.5000002
vt 13 -0.4999999
vt -1.000015 -8.750001
vt -1.000024 -12
vt 13 1.999978
vt 9.749997 1.999983
vt 6.749997 -0.9999999
vt -1.000002 -1
vt -1.000002 -0.500001
vt 6.749997 -0.5000004
vt -1.000007 -5.75
vt -0.9999866 2.000002
vt 6.749998 1.999987
vt -1.000001 1.999999
vt -19.49999 -1.000003
vt -19.5 -0.5000023
vt 2.000002 -1.000002
vt -12 -0.9999989
vt -12 -0.4999987
vt 2.000005 -0.5000014
vt 20.50001 -1
vt 20.50001 -0.5000007
vt 3 -1.000001
vt -5.75 -0.9999999
vt -5.75 -0.4999998
vt 3 -0.5000011
vt -5.999996 3
vt -0.9999938 3
vt -1.999999 2.000001
vt -1.999999 7.000003
vt -5.999999 -1.000001
vt -5.999998 -0.5000008
vt 7.5 -0.9999998
vt -2 -1.000001
vt -2 -0.5000011
vt 7.5 -0.4999999
vt -8.75001 -0.9999995
vt -8.750006 -0.4999993
vt 12.99999 9.96665
vt 9.750001 9.966655
vt 9.749998 20.49998
vt 12.99999 20.49998
vt 1.49999 -1.000002
vt 1.499994 -0.500002
vt -0.4999942 9.96667
vt -12 9.966686
vt -12 20.50002
vt -0.499997 20.5
vt 6.750002 9.96666
vt 6.749999 20.49999
vt 9.750006 -5.250023
vt 13 -5.250028
vt 13 -5.500028
vt 9.750006 -5.500023
vt 9.750006 -4.750023
vt 13 -4.750028
vt -0.4999897 -1
vt -0.4999957 -0.5000012
vt -0.4999895 -5.250008
vt -0.4999894 -5.500008
vt -12 -5.49999
vt -12 -5.24999
vt -0.4999896 -4.750008
vt -12 -4.749991
vt 6.750007 -5.250019
vt 6.750007 -5.500019
vt 6.750007 -4.750019
vt 6.499999 -1
vt 6.499992 -0.4999989
vt -5.500007 -0.9999987
vt -5.500008 -0.4999986
vt 6.499984 -12.00001
vt -19.49997 13
vt 6.500055 12.99999
vt 5.25 -1
vt 5.25 -0.5000004
vt 2.499997 -4.249997
vt -6.000007 -4.249999
vt 2.500008 3.000001
vt 5.249999 -1.500012
vt -1.999999 -1.500001
vt 5.249999 6.999991
vt 2.500002 -0.4999993
vt 11.5 9.749981
vt 11 -0.500019
vt 11 9.749982
vt 11.5 10.24998
vt 11 10.24998
vt 11 10.49998
vt 2.499998 9.749994
vt 0.4999981 9.749997
vt 2.499998 10.24999
vt 0.4999981 10.25
vt 2.499998 10.49999
vt -0.5000057 2
vt -4.25 -1
vt -4.25 -0.5000003
# Vertex Normals: 14
vn 1 0 0
vn -1 0 0
vn 0 0 -1
vn 0 -1 0
vn 0 1 0
vn 0.9751329 0 0.2216211
vn -0.9751328 0 0.2216211
vn 0.7127406 0 0.7014275
vn -0.7189882 0 -0.6950224
vn -1.192093E-07 0 1
vn -0.9999788 0 -0.006513742
vn 0.6763093 0 0.7366173
vn -0.6828533 0 -0.7305559
vn -0.6721293 0 -0.7404341
# Faces: 215
f 4/4/1 3/3/1 2/2/1 1/1/1 
f 8/3/2 7/6/2 6/5/2 5/2/2 
f 7/10/3 4/9/3 1/8/3 6/7/3 
f 2/14/4 5/13/4 6/12/4 1/11/4 
f 7/18/5 8/17/5 3/16/5 4/15/5 
f 3/4/6 10/20/6 9/19/6 2/1/6 
f 12/22/7 8/6/7 5/5/7 11/21/7 
f 9/24/4 11/23/4 5/12/4 2/11/4 
f 8/18/5 12/26/5 10/25/5 3/15/5 
f 15/29/4 14/28/4 13/27/4 
f 18/32/5 17/31/5 16/30/5 
f 22/36/4 21/35/4 20/34/4 19/33/4 
f 25/39/4 24/38/4 23/37/4 
f 21/35/4 25/39/4 23/37/4 20/34/4 
f 29/43/5 28/42/5 27/41/5 26/40/5 
f 32/46/5 31/45/5 30/44/5 
f 31/45/5 29/43/5 26/40/5 30/44/5 
f 36/50/1 35/49/1 34/48/1 33/47/1 
f 34/52/4 35/51/4 19/33/4 20/34/4 
f 40/56/1 39/55/1 38/54/1 37/53/1 
f 24/38/4 41/59/4 39/58/4 40/57/4 23/37/4 
f 34/48/1 40/56/1 37/53/1 33/47/1 
f 40/57/4 34/52/4 20/34/4 23/37/4 
f 43/61/1 42/60/1 36/50/1 33/47/1 
f 42/63/5 43/62/5 26/40/5 27/41/5 
f 45/65/1 44/64/1 37/53/1 38/54/1 
f 44/68/5 45/67/5 46/66/5 32/46/5 30/44/5 
f 49/71/1 48/70/1 9/1/1 47/69/1 
f 50/74/4 9/73/4 48/72/4 
f 10/4/1 51/75/1 49/71/1 47/69/1 
f 51/78/5 10/77/5 52/76/5 
f 38/54/1 39/55/1 48/70/1 49/71/1 
f 41/59/4 50/74/4 48/72/4 39/58/4 
f 51/75/1 45/65/1 38/54/1 49/71/1 
f 45/67/5 51/78/5 52/76/5 46/66/5 
f 53/79/4 15/29/4 13/27/4 22/36/4 19/33/4 
f 17/31/5 54/80/5 27/41/5 28/42/5 16/30/5 
f 56/82/1 55/81/1 35/49/1 36/50/1 
f 55/83/4 53/79/4 19/33/4 35/51/4 
f 42/60/1 57/84/1 56/82/1 36/50/1 
f 54/80/5 57/85/5 42/63/5 27/41/5 
f 61/89/4 60/88/4 59/87/4 58/86/4 
f 64/92/4 63/91/4 62/90/4 
f 63/91/4 61/89/4 58/86/4 62/90/4 
f 68/96/5 67/95/5 66/94/5 65/93/5 
f 71/99/5 70/98/5 69/97/5 
f 66/94/5 71/99/5 69/97/5 65/93/5 
f 75/103/2 74/102/2 73/101/2 72/100/2 
f 74/105/4 75/104/4 58/86/4 59/87/4 
f 79/109/2 78/108/2 77/107/2 76/106/2 
f 77/112/4 78/111/4 80/110/4 64/92/4 62/90/4 
f 77/107/2 75/103/2 72/100/2 76/106/2 
f 75/104/4 77/112/4 62/90/4 58/86/4 
f 82/114/2 81/113/2 72/100/2 73/101/2 
f 81/116/5 82/115/5 68/96/5 65/93/5 
f 84/118/2 83/117/2 79/109/2 76/106/2 
f 83/121/5 84/120/5 69/97/5 70/98/5 85/119/5 
f 81/113/2 84/118/2 76/106/2 72/100/2 
f 84/120/5 81/116/5 65/93/5 69/97/5 
f 88/124/2 11/5/2 87/123/2 86/122/2 
f 87/127/4 11/126/4 89/125/4 
f 90/128/2 12/6/2 88/124/2 86/122/2 
f 12/131/5 90/130/5 91/129/5 
f 14/28/4 92/132/4 59/87/4 60/88/4 13/27/4 
f 93/133/5 18/32/5 16/30/5 67/95/5 68/96/5 
f 92/132/4 74/105/4 59/87/4 
f 82/115/5 93/133/5 68/96/5 
f 21/35/4 22/36/4 60/88/4 61/89/4 
f 24/38/4 25/39/4 63/91/4 64/92/4 95/135/4 94/134/4 
f 25/39/4 21/35/4 61/89/4 63/91/4 
f 66/94/5 67/95/5 28/42/5 29/43/5 
f 70/98/5 71/99/5 31/45/5 32/46/5 97/137/5 96/136/5 
f 71/99/5 66/94/5 29/43/5 31/45/5 
f 41/59/4 24/38/4 94/134/4 
f 32/46/5 46/66/5 97/137/5 
f 101/141/4 100/140/4 99/139/4 98/138/4 
f 105/145/5 104/144/5 103/143/5 102/142/5 
f 100/140/4 9/73/4 50/74/4 99/139/4 
f 52/76/5 10/77/5 105/145/5 102/142/5 
f 94/134/4 95/135/4 98/138/4 99/139/4 
f 102/142/5 103/143/5 96/136/5 97/137/5 
f 50/74/4 41/59/4 94/134/4 99/139/4 
f 46/66/5 52/76/5 102/142/5 97/137/5 
f 95/135/4 64/92/4 80/110/4 
f 85/119/5 70/98/5 96/136/5 
f 11/126/4 101/141/4 98/138/4 89/125/4 
f 12/131/5 91/129/5 103/143/5 104/144/5 
f 22/36/4 13/27/4 60/88/4 
f 67/95/5 16/30/5 28/42/5 
f 57/4/8 107/147/8 106/146/8 55/1/8 
f 109/149/9 82/6/9 74/5/9 108/148/9 
f 106/151/4 108/150/4 74/126/4 55/73/4 
f 82/131/5 109/153/5 107/152/5 57/77/5 
f 113/157/3 112/156/3 111/155/3 110/154/3 
f 111/161/4 112/160/4 115/159/4 114/158/4 
f 117/162/4 116/105/4 111/161/4 114/158/4 
f 119/164/3 118/163/3 113/157/3 110/154/3 
f 118/168/5 119/167/5 121/166/5 120/165/5 
f 119/167/5 123/115/5 122/169/5 121/166/5 
f 114/158/4 115/159/4 125/171/4 124/170/4 
f 126/172/4 117/162/4 114/158/4 124/170/4 
f 128/174/5 127/173/5 120/165/5 121/166/5 
f 122/169/5 129/175/5 128/174/5 121/166/5 
f 133/179/10 132/178/10 131/177/10 130/176/10 
f 124/170/4 125/171/4 132/181/4 133/180/4 
f 135/182/10 134/81/10 133/179/10 130/176/10 
f 134/83/4 126/172/4 124/170/4 133/180/4 
f 137/184/10 136/183/10 130/176/10 131/177/10 
f 136/186/5 137/185/5 127/173/5 128/174/5 
f 136/183/10 138/84/10 135/182/10 130/176/10 
f 129/175/5 138/85/5 136/186/5 128/174/5 
f 141/189/3 108/5/3 140/188/3 139/187/3 
f 140/191/4 108/126/4 142/190/4 
f 144/193/3 112/156/3 113/157/3 143/192/3 
f 112/160/4 144/196/4 146/195/4 145/194/4 115/159/4 
f 140/188/3 144/193/3 143/192/3 139/187/3 
f 144/196/4 140/191/4 142/190/4 146/195/4 
f 147/197/3 109/6/3 141/189/3 139/187/3 
f 109/131/5 147/199/5 148/198/5 
f 118/163/3 149/200/3 143/192/3 113/157/3 
f 149/203/5 118/168/5 120/165/5 151/202/5 150/201/5 
f 149/200/3 147/197/3 139/187/3 143/192/3 
f 147/199/5 149/203/5 150/201/5 148/198/5 
f 145/194/4 152/204/4 125/171/4 115/159/4 
f 120/165/5 127/173/5 153/205/5 151/202/5 
f 108/126/4 155/207/4 154/206/4 142/190/4 
f 156/208/4 145/194/4 146/195/4 
f 154/206/4 156/208/4 146/195/4 142/190/4 
f 109/131/5 148/198/5 158/210/5 157/209/5 
f 150/201/5 151/202/5 159/211/5 
f 148/198/5 150/201/5 159/211/5 158/210/5 
f 155/207/4 161/213/4 160/212/4 154/206/4 
f 162/214/4 152/204/4 145/194/4 156/208/4 
f 160/212/4 162/214/4 156/208/4 154/206/4 
f 164/216/5 163/215/5 157/209/5 158/210/5 
f 151/202/5 153/205/5 165/217/5 159/211/5 
f 138/221/2 123/220/2 116/219/2 134/218/2 
f 169/225/5 168/224/5 167/223/5 166/222/5 
f 172/229/11 168/228/11 171/227/11 170/226/11 
f 174/233/12 172/232/12 170/231/12 173/230/12 
f 168/237/13 169/236/13 175/235/13 171/234/13 
f 169/241/3 174/240/3 173/239/3 175/238/3 
f 170/245/4 171/244/4 175/243/4 173/242/4 
f 178/248/11 177/247/11 176/246/11 172/226/11 
f 179/250/12 178/249/12 172/231/12 174/230/12 
f 177/254/14 181/253/14 180/252/14 176/251/14 
f 181/257/3 179/256/3 174/239/3 180/255/3 
f 181/222/5 177/260/5 178/259/5 179/258/5 
f 185/264/10 184/263/10 183/262/10 182/261/10 
f 187/266/1 185/265/1 182/2/1 186/1/1 
f 184/265/2 189/267/2 188/5/2 183/2/2 
f 189/270/3 187/269/3 186/268/3 188/7/3 
f 182/272/4 183/13/4 188/12/4 186/271/4 
f 189/18/5 184/17/5 185/274/5 187/273/5 
f 192/278/10 191/277/10 190/276/10 78/275/10 
f 195/282/3 194/281/3 87/280/3 193/279/3 
f 198/286/10 197/285/10 196/284/10 83/283/10 
f 201/290/3 200/289/3 199/288/3 90/287/3 
f 196/284/10 192/278/10 78/275/10 83/283/10 
f 194/281/3 201/290/3 90/287/3 87/280/3 
f 203/293/1 98/292/1 95/55/1 202/291/1 
f 78/275/10 190/276/10 202/295/10 95/294/10 
f 98/297/3 203/296/3 193/279/3 87/280/3 
f 103/301/1 205/300/1 204/299/1 96/298/1 
f 204/303/10 198/286/10 83/283/10 96/302/10 
f 199/288/3 205/305/3 103/304/3 90/287/3 
f 205/300/5 200/307/5 197/306/5 204/299/5 
f 200/311/2 195/310/2 191/309/2 197/308/2 
f 195/313/4 203/311/4 202/308/4 191/312/4 
f 207/317/2 30/316/2 26/315/2 206/314/2 
f 208/319/10 206/318/10 26/283/10 43/302/10 
f 30/287/3 207/321/3 209/320/3 44/304/3 
f 209/300/5 207/323/5 206/322/5 208/299/5 
f 37/327/1 209/326/1 208/325/1 33/324/1 
f 125/329/2 212/310/2 211/309/2 210/328/2 
f 212/333/3 125/332/3 214/331/3 213/330/3 
f 218/293/2 217/335/2 216/334/2 215/291/2 
f 217/339/3 218/338/3 220/337/3 219/336/3 
f 217/335/2 127/316/2 221/315/2 216/334/2 
f 127/341/3 217/339/3 219/336/3 222/340/3 
f 225/293/1 161/292/1 224/55/1 223/291/1 
f 161/345/3 225/344/3 226/343/3 160/342/3 
f 227/347/3 213/330/3 214/331/3 162/346/3 
f 226/343/3 227/347/3 162/346/3 160/342/3 
f 231/349/1 230/310/1 229/309/1 228/348/1 
f 233/353/3 230/352/3 231/351/3 232/350/3 
f 220/337/3 235/355/3 234/354/3 219/336/3 
f 235/355/3 233/353/3 232/350/3 234/354/3 
f 163/301/1 231/349/1 228/348/1 236/298/1 
f 231/351/3 163/357/3 164/356/3 232/350/3 
f 165/358/3 222/340/3 219/336/3 234/354/3 
f 230/360/5 218/307/5 215/306/5 229/359/5 
f 212/313/4 225/362/4 223/361/4 211/312/4 
f 229/365/10 215/364/10 211/277/10 223/363/10 
f 159/367/3 238/326/3 237/325/3 158/366/3 
f 237/370/1 232/318/1 164/369/1 158/368/1 
f 165/373/2 234/321/2 238/372/2 159/371/2 
f 238/374/5 234/323/5 232/322/5 237/239/5 
f 242/377/5 241/376/5 240/273/5 239/375/5 
f 246/18/5 245/380/5 244/379/5 243/378/5 
f 244/379/5 242/377/5 239/375/5 243/378/5 
f 250/382/5 249/274/5 248/374/5 247/381/5 
f 254/385/5 253/17/5 252/384/5 251/383/5 
f 252/384/5 250/382/5 247/381/5 251/383/5 
f 247/381/5 248/374/5 241/376/5 242/377/5 
f 245/380/5 254/385/5 251/383/5 244/379/5 
f 240/4/1 249/3/1 256/2/1 255/1/1 
f 253/3/2 246/6/2 258/5/2 257/2/2 
f 246/10/3 240/386/3 255/268/3 258/7/3 
f 256/272/4 257/13/4 258/12/4 255/271/4 
f 244/367/3 260/326/3 259/325/3 242/366/3 
f 262/317/10 251/388/10 247/387/10 261/314/10 
f 259/370/1 261/318/1 247/369/1 242/368/1 
f 251/373/2 262/321/2 260/372/2 244/371/2 
f 260/374/5 262/323/5 261/322/5 259/239/5 


