g Mesh1
# Vertex Positions: 238
v -40 -5 40.00001
v -40 -5 62.00001
v -40 1 62.00001
v -40 1 40.00001
v -83 -5 62.00001
v -83 -5 40.00001
v -83 1 40.00001
v -83 1 62.00001
v -60 -3 90.00001
v -60 -5 90.00001
v -63 -5 90.00001
v -63 -3 90.00001
v -33 -5 90.00001
v -33 1 90.00001
v -90 -5 90.00001
v -90 1 90.00001
v -50 -5 -0.9999943
v -72 -5 -0.9999943
v -72 8.750001 -0.9999943
v -50 8.750001 -0.9999943
v -50 -5 -22.99999
v -50 8.750001 -22.99999
v -72 -5 -22.99999
v -72 8.750001 -22.99999
v -27.25 7 113
v -31.75 2.30435 95.00001
v -31.69565 2.30435 95.00001
v -27 7 113
v -21 13 136
v -21.5 13 136
v -48 7 136
v -54 1 113
v -58.5 1 95.75001
v -58.5 2.500002 95.75001
v -54 7 113
v -58.5 2.30435 95.00001
v -48 2.30435 95.00001
v -48 7 113
v -58.69565 1 95.00001
v -58.69565 2.30435 95.00001
v -58.5 1 90
v -48 1 90
v -48 13 136
v -58.5 -3 95.75001
v -58 -3 97.66666
v -58.5 -3.499999 95.75001
v -58.69565 -3 95.00001
v -58.69565 -3.695651 95.00001
v -21 7 136
v -95.75 -5 113
v -101.5 -11 136
v -102 -11 136
v -96 -5 113
v -93.83334 -3 105.3333
v -94 -3 105.3333
v -91.25 -0.3043492 95.00001
v -91.30435 -0.3043492 95.00001
v -64.5 -5 95.74999
v -64.5 -6.499998 95.74999
v -69 -11 113
v -75 -11 136
v -69 -5 113
v -75 -5 113
v -64.30435 -5 95.00001
v -64.30435 -6.304349 95.00001
v -75 -17 136
v -64.5 -3 95.74999
v -67 -3 105.3333
v -75 -3 105.3333
v -64.5 -0.4999976 95.74999
v -75 -0.3043492 95.00001
v -64.5 -0.3043492 95.00001
v -64.30435 -3 95.00001
v -64.30435 -0.3043492 95.00001
v -75 1 90
v -64.5 1 90
v -102 -17 136
v -75 -17 171
v -75 -11 171
v -102 -17 171
v -102 -11 171
v -21 7 171
v -21 13 171
v -48 7 171
v -48 13 171
v -57.64 -17 202
v -75 -17 202
v -75 -17 216.3278
v -72.39123 -17 221
v -47 -17 221
v -75 -11 216.3278
v -75 -11 202
v -57.64 -11 202
v -47 -11 221
v -72.39123 -11 221
v -75 -17 216.8813
v -72.70028 -17 221
v -75 -11 216.8813
v -72.70028 -11 221
v -83.00001 -17 202
v -83.00001 -11 202
v -83.30905 -17 202
v -83.30905 -11 202
v -100.3091 -17 171
v -100.3091 -11 171
v -48 7 219.0769
v -74 7 221
v -49 7 221
v -48 13 219.0769
v -49 13 221
v -74 13 221
v -23 7 171
v -23 13 171
v -46 -17 268.8194
v -46 -17 233
v -66 -17 233
v -66 -11 233
v -46 -11 233
v -46 -11 268.8194
v -46 -17 271
v -67.28 -17 233
v -67.28 -11 233
v -46 -11 271
v -46 -17 222.7857
v -46 -11 222.7857
v -40.28 -17 233
v -44.78246 -17 271
v -19 -17 271
v -40.28 -11 233
v -19 -11 271
v -44.78246 -11 271
v -73 7 221
v -73 7 267.1538
v -73 13 267.1538
v -73 13 221
v -100 7 271
v -75 7 271
v -75 13 271
v -100 13 271
v -29 -5 352
v -56 -5 352
v -56 1 352
v -29 1 352
v -19 -17 306
v -19 -11 306
v -46 -17 306
v -46 -11 306
v -59 -5 352
v -86 -5 352
v -86 1 352
v -59 1 352
v -73 7 306
v -73 13 306
v -100 7 306
v -100 13 306
v -86 -5 352
v -29 -5 352
v -29 1 352
v -86 1 352
v -79 -5 380
v -79 1 380
v -36 -5 380
v -36 1 380
v -73 7 271
v -73 13 271
v -64.30434 2.30435 95.00001
v -64.30434 15 95.00001
v -58.69565 15 95.00001
v -63 0.9999998 90.00001
v -60 0.9999998 90.00001
v -60 15 90.00001
v -63 15 90.00001
v -64.5 2.30435 95.00001
v -64.5 15 95.00001
v -64.5 15 90.00001
v -64.30434 0.9999998 95.00001
v -64.5 0.9999998 95.00001
v -58.5 15 95.00001
v -58.5 15 90.00001
v -58.69565 -0.3043487 95.00001
v -83.30905 -1 202
v -83 -1 202
v -100.3091 -1 171
v -100.6181 -11 171
v -100.6181 -1 171
v -102 -1 171
v -84.69095 -17 202
v -84.69095 -1 202
v -67.3819 -11 233
v -67.69095 -11 233
v -67.69095 -1 233
v -67.3819 -1 233
v -67.28001 -1 233
v -67.3819 -17 233
v -67.69095 -17 233
v -66 -1 233
v -72.70028 -1 221
v -85 -11 202
v -84.69095 -11 202
v -85 -1 202
v -85 -17 202
v -48 22 219.0769
v -49 22 221
v -23 22 171
v -21 22 171
v -47 7 221
v -47 22 221
v -73 22 267.1538
v -75 22 271
v -73 22 271
v -78 15 418
v -78 15 419
v -79 15 419
v -79 15 418
v -69.49999 15 418
v -69.24999 15 419
v -78 15 384
v -79 15 380
v -37 15 418
v -36 15 418
v -36 15 419
v -37 15 419
v -45.5 15 418
v -45.75 15 419
v -37 15 384
v -36 15 380
v -37 0.9999996 380
v -37 15 380
v -78 0.9999996 380
v -78 15 380
v -36 -5 419
v -79 -5 419
v -78 0.9999996 418
v -69.49999 0.9999996 418
v -78 0.9999996 384
v -37 0.9999996 418
v -45.5 0.9999996 418
v -37 0.9999996 384
# Vertex UVs: 371
vt 11.5 -0.9999999
vt 0.4999982 -1
vt 0.4999982 2
vt 11.5 2
vt -10.5 -0.9999999
vt -10.5 2
vt 10.5 -0.9999998
vt -11 -1
vt -11.00001 2
vt 10.5 2
vt 11.99999 -10.5
vt -9.500017 -10.5
vt -9.499997 0.5000019
vt 12.00001 0.5000004
vt 11.5 -11.00002
vt 0.4999981 -11
vt 0.4999981 10.5
vt 11.5 10.49998
vt 2.000003 1.490116E-07
vt 2 -0.9999998
vt 0.5000011 1.490116E-07
vt -2.074557 -0.9999904
vt -2.074558 2.000002
vt 3.389565 -0.999988
vt 3.389568 2.000011
vt -12.99999 3.500002
vt 15.50002 3.5
vt -2.500002 -14.5
vt -2.500002 14
vt 1.500001 -0.9999999
vt -9.499999 -1
vt -9.499995 5.875
vt 1.500005 5.875
vt 0.4999983 5.875
vt 11.5 5.875
vt -10.5 5.875
vt -0.500001 -0.9999996
vt -0.500012 5.875
vt 10.49999 5.875
vt 1.499985 -10.5
vt 1.500005 0.5
vt 11.5 -0.5000207
vt 0.4999981 -0.5000034
vt -0.3526368 -11.87499
vt 8.923336 -9.625016
vt 8.923336 -9.65219
vt -0.3526368 -11.99999
vt 11.5 -9.000022
vt -12.20527 -14.99996
vt -12.20527 -14.74996
vt 13.17636 5.000002
vt 1.338181 2.000001
vt -7.540452 2
vt -7.540452 2.750001
vt 1.338182 5.000001
vt 8.923331 3.74998
vt 8.923333 -1.500018
vt -0.3526435 -1.499999
vt -0.3526444 1.5
vt 8.536833 3.749981
vt -7.926479 2
vt -7.926479 2.652175
vt 8.923331 3.847806
vt 11.5 3.749975
vt 11.5 -1.500024
vt 13.17637 8.000002
vt -12.20529 -1.499974
vt -7.540453 3.10648E-07
vt -6.553941 3.901206E-07
vt -7.540453 -0.2499989
vt -7.92648 3.389117E-07
vt -7.92648 -0.3478249
vt -10.5 1.490116E-07
vt -12.17639 4.999995
vt -12.1764 7.999993
vt 11.49998 2.000001
vt 9.499987 -10.5
vt -4.000015 -10.5
vt 2.000026 13.20529
vt 15.50003 13.20529
vt -0.3526495 9.374998
vt -12.20529 12.25002
vt -12.20529 12.50002
vt -0.3526495 9.499997
vt 3.59823 8.416656
vt 3.59823 8.49999
vt 8.923325 7.12498
vt 8.923325 7.152153
vt 11.49999 6.499974
vt 8.538058 -0.9999994
vt 8.538061 -1.749998
vt -0.3477783 -3.999997
vt -12.19556 -3.999996
vt -0.3477895 -0.9999977
vt -0.3526487 -1
vt -0.3526485 -4
vt -12.20529 -0.9999771
vt 8.924392 -0.9999995
vt 8.924394 -1.652174
vt -12.19556 -6.999994
vt 8.538053 6.217091E-07
vt 3.601469 1.716117E-06
vt 3.598232 -1.000008
vt 3.598233 -5.000007
vt 8.538046 1.250002
vt 8.923328 -1.000019
vt 8.923331 -6.250019
vt 8.536839 -6.250018
vt 8.924386 5.478156E-07
vt 8.924378 1.347826
vt 8.923331 -6.347843
vt 11.49999 -1.000024
vt 11.5 -6.250022
vt 11.5 3.973638E-08
vt 13.19556 -6.999999
vt 13.19556 -3.999999
vt 7.999987 -10.5
vt -5.500015 -10.5
vt -11.49998 13.20529
vt 1 -2
vt -16.5 -1.999998
vt -16.5 1.000001
vt 0.9999981 0.9999986
vt 17.5 -1.999998
vt 0 -2
vt 0 1
vt 17.5 1.000002
vt 4.5 0
vt -8.999998 0
vt -9.000034 17.5
vt 4.499964 17.5
vt 1 -3.5
vt -16.5 -3.500001
vt -16.5 10
vt 0.9999981 10
vt 13.17997 15.5
vt 4.499969 15.50001
vt 4.499954 22.6639
vt 5.804334 25.00001
vt 18.49995 25.00001
vt -21.66389 -3.500001
vt -14.5 -3.5
vt -14.5 -12.18
vt -24.00001 -17.50001
vt -24.00001 -4.804386
vt 4.499954 22.94065
vt 5.649807 25.00001
vt -21.94064 -3.500001
vt -24.00001 -4.649859
vt 0.4999679 15.50001
vt -14.5 0.5000017
vt 0.3454445 15.50001
vt -14.5 0.6545252
vt -8.154527 0
vt 1.000005 9.154531
vt -27.29248 -1.999993
vt -27.29236 1.000001
vt -9.00005 24.03847
vt -22.00005 25.00001
vt -9.500051 25.00001
vt -23.03846 10
vt -23.99999 10.5
vt -23.99996 22.99999
vt 3.500001 0
vt 1 -2.5
vt 28.03087 -1.999994
vt 28.03087 1.000006
vt 4.999952 23.90971
vt 4.999988 5.999999
vt -5.000012 6.000002
vt -4.999997 6.000003
vt -4.999998 -4
vt -22.90971 -4.000001
vt 28.29237 -1.999995
vt 6.790168 -1.999999
vt 6.790168 1.000001
vt 28.29237 1.000005
vt -5.64001 6.000002
vt 4.999949 25.00001
vt -24.00001 -4.000001
vt -4.999997 6.640002
vt 4.999998 0.8928574
vt -8.350139 0
vt 1.000005 9.350143
vt 0.1071426 -4
vt 7.859985 5.999999
vt 5.608721 25.00001
vt -4.999998 -6.859999
vt -24.00001 -4.608773
vt -8.499998 0
vt -8.500048 23.07693
vt -22.07692 9.500001
vt 1.000005 9.500003
vt 4.50001 4.999999
vt -8.999992 4.999997
vt -8.99999 7.999994
vt 4.500013 7.999996
vt -11.75325 4.999994
vt -11.75328 7.999992
vt 12.75324 5.000004
vt 12.75324 8.000004
vt -8.999976 13.20529
vt 4.500026 13.20529
vt -12.2053 -3.999973
vt -12.20532 9.500031
vt 11.5 4.499975
vt 14.99999 -6.999997
vt 1.499997 -6.999999
vt 1.500003 -3.999998
vt 15 -3.999997
vt -12.14189 -6.999995
vt -12.14189 -3.999994
vt 13.1419 -7.000001
vt 13.1419 -4.000001
vt 1.500025 13.20529
vt 15.00003 13.20529
vt 11.5 -7.000022
vt -12.20531 -13.99999
vt -12.20531 -0.4999779
vt 15.5 -0.9999997
vt -13.00001 -0.9999998
vt -13 2
vt 15.50001 2
vt 1.902175 2.652176
vt -0.9021738 2.652176
vt -0.9021737 9.000002
vt 1.902176 9.000002
vt 1.25 2
vt -0.2500014 2
vt -0.2500013 9.000002
vt 1.25 9.000002
vt -0.9999999 2.652176
vt -0.9999998 9.000002
vt 0.9999998 2.652176
vt -1.5 2
vt -1.500001 9.000002
vt 0.9999992 9.000002
vt 2 2
vt 2 9.000002
vt 1.902175 2
vt -0.9021738 2
vt -0.9999999 2
vt 0.9999998 2
vt 2 2.652176
vt 2.5 2
vt 0 2.652176
vt 0 9.000002
vt 2.5 9.000002
vt -0.9021738 1.347826
vt 1.902175 1.347826
vt 1.902175 0
vt -0.9021739 0
vt 1.250001 -1.5
vt -0.2500001 -1.5
vt -0.9021739 1
vt 1.902175 1
vt -0.9999999 1.347826
vt 0.9999999 1.347826
vt 2.5 -1
vt 0 -1
vt 0 2
vt 0.4999979 1
vt 0.345471 1
vt 0.3454644 5.999998
vt 0.4999913 5.999998
vt 6.715457 0.9999875
vt -10.77492 0.9999971
vt -10.77453 5.999976
vt 6.715848 5.999966
vt 9.309053 1
vt 9.154527 1
vt 9.154526 6.000001
vt 9.309052 6.000001
vt 10 1
vt 10 6.000001
vt 17.49025 -1.999995
vt -4.699398E-07 6
vt 17.49025 6.000004
vt -0.3455052 15.5
vt 0.9999819 9.154537
vt -14.5 1.345476
vt 0.999979 10.00001
vt -0.190952 1
vt -0.3454763 1
vt -0.3454829 5.999999
vt -0.1909586 5.999999
vt -0.140005 1
vt -0.1400116 5.999999
vt -0.190948 -1.999999
vt -0.3454723 -1.999999
vt -0.140001 -1.999999
vt -4.00445 0.9999936
vt -4.004058 5.999972
vt 9.845477 1.000001
vt 9.845476 6.000002
vt 10 -2
vt 9.845477 -2
vt 22.29405 1.000001
vt 21.21594 1.000001
vt 21.21596 5.499988
vt 22.29407 5.499988
vt -5.736796 0.9999995
vt -5.736772 5.499987
vt -2.500001 1
vt -3.5 1
vt -3.499999 5.500001
vt -2.5 5.500001
vt -27.03094 -1.999993
vt -27.0308 5.499993
vt 1.000137 5.499986
vt -8.50005 25.00001
vt -24 9.500001
vt 20.13783 1.000001
vt 20.13785 5.499988
vt -8.499998 0.9999995
vt -9.5 0.9999995
vt -9.500008 5.499999
vt -8.500006 5.499999
vt -7.500002 10.00001
vt -8.000002 10.00001
vt -8.000002 10.50001
vt -7.500002 10.50001
vt -7.500002 5.750007
vt -8.000002 5.625007
vt 9.5 9.999986
vt -7.500003 -10.49999
vt -7.500003 -10.99999
vt -8.000003 -10.99999
vt -8.000003 -10.49999
vt -7.500003 -6.249994
vt -8.000003 -6.124993
vt 9.499998 -10.50002
vt -11.00001 9
vt -10.50001 9
vt 11.5 -10.50002
vt 9.999998 2
vt 9.999994 9
vt 10.49999 9
vt 11.5 9.999983
vt 12 -0.9999999
vt -9.499986 9
vt 12.00002 9
vt -8.000004 -1
vt -7.999999 9
vt 11.5 9
vt 9.000004 -1
vt -10.49999 9
vt 9.000011 8.999999
vt -8.999995 2
vt -4.74999 2
vt -4.749981 9
vt -8.999986 9
vt 8.500006 1.999999
vt 8.50001 9
vt -8.499992 9
vt -8.499997 2
vt -9.000012 -8.499997
vt -4.749981 8.500002
vt -8.999986 8.500002
vt 11.50002 9
vt 7.250018 9
vt 7.250008 2
vt 9.499999 2
vt 9.500005 9.000001
vt -7.499999 9
vt -7.500003 1.999999
vt 11.50002 8.499999
vt 7.250018 8.5
vt 11.49999 -8.5
vt -9.000016 -10.5
vt 11.49999 -10.5
# Vertex Normals: 28
vn 1 0 0
vn -1 0 0
vn 0 0 -1
vn 0 -1 0
vn 0 1 0
vn 0 0 1
vn 0.9701425 0 -0.2425356
vn -0.9701425 0 -0.2425357
vn 0 0.9676172 -0.2524219
vn -0.9676172 0 0.2524219
vn 0.9676172 0 -0.2524219
vn 0 -0.9676172 0.2524219
vn 0 0.9676172 0.2524219
vn 0.9676172 0 0.2524219
vn -0.9676172 0 -0.2524219
vn 0 -0.9676172 -0.2524219
vn 0.872506 0 -0.4886034
vn -0.8872167 0 -0.4613528
vn -0.872506 0 0.4886034
vn 0.9771762 0 0.2124296
vn -0.9771762 0 -0.2124296
vn 0.9566739 0 -0.2911616
vn -0.9566739 0 0.2911616
vn -0.9701425 0 0.2425357
vn 0.9701425 0 0.2425356
vn 0.873117 0 -0.4875106
vn -0.873117 0 0.4875106
vn 0.8872167 0 0.4613528
# Faces: 201
f 4/4/1 3/3/1 2/2/1 1/1/1 
f 8/3/2 7/6/2 6/5/2 5/2/2 
f 7/10/3 4/9/3 1/8/3 6/7/3 
f 2/14/4 5/13/4 6/12/4 1/11/4 
f 7/18/5 8/17/5 3/16/5 4/15/5 
f 12/21/6 11/2/6 10/20/6 9/19/6 
f 3/4/7 14/23/7 13/22/7 2/1/7 
f 16/25/8 8/6/8 5/5/8 15/24/8 
f 13/27/4 15/26/4 5/12/4 2/11/4 
f 8/18/5 16/29/5 14/28/5 3/15/5 
f 20/33/6 19/32/6 18/31/6 17/30/6 
f 22/35/1 20/34/1 17/2/1 21/1/1 
f 19/34/2 24/36/2 23/5/2 18/2/2 
f 24/39/3 22/38/3 21/37/3 23/7/3 
f 17/41/4 18/13/4 23/12/4 21/40/4 
f 24/18/5 19/17/5 20/43/5 22/42/5 
f 28/47/9 27/46/9 26/45/9 25/44/9 
f 27/46/9 14/48/9 26/45/9 
f 30/50/9 29/49/9 28/47/9 25/44/9 
f 35/55/10 34/54/10 33/53/10 32/52/10 31/51/10 
f 34/60/9 35/59/9 38/58/9 37/57/9 36/56/9 
f 34/54/10 40/62/10 39/61/10 33/53/10 
f 40/63/9 34/60/9 36/56/9 
f 36/56/9 37/57/9 42/65/9 41/64/9 
f 43/66/10 35/55/10 31/51/10 
f 35/59/9 43/67/9 38/58/9 
f 25/44/9 26/45/9 37/57/9 38/58/9 
f 26/45/9 14/48/9 42/65/9 37/57/9 
f 43/67/9 30/50/9 25/44/9 38/58/9 
f 46/70/10 45/69/10 44/68/10 
f 45/69/10 32/52/10 33/53/10 44/68/10 
f 48/72/10 46/70/10 44/68/10 47/71/10 
f 44/68/10 33/53/10 39/61/10 47/71/10 
f 9/73/10 10/5/10 48/72/10 47/71/10 
f 14/76/11 29/75/11 49/74/11 13/1/11 
f 49/80/12 31/79/12 10/78/12 13/77/12 
f 53/84/13 52/83/13 51/82/13 50/81/13 
f 55/86/13 53/84/13 50/81/13 54/85/13 
f 57/88/13 55/86/13 54/85/13 56/87/13 
f 16/89/13 57/88/13 56/87/13 
f 62/94/14 61/93/14 60/92/14 59/91/14 58/90/14 
f 61/97/13 62/96/13 63/95/13 
f 59/91/14 65/99/14 64/98/14 58/90/14 
f 65/99/14 11/1/14 64/98/14 
f 61/93/14 66/100/14 60/92/14 
f 50/81/13 51/82/13 61/97/13 63/95/13 
f 68/102/14 62/94/14 58/90/14 67/101/14 
f 63/95/13 62/96/13 68/104/13 69/103/13 
f 70/105/14 68/102/14 67/101/14 
f 68/104/13 70/108/13 72/107/13 71/106/13 69/103/13 
f 67/101/14 58/90/14 64/98/14 73/109/14 
f 74/110/14 70/105/14 67/101/14 73/109/14 
f 70/108/13 74/111/13 72/107/13 
f 76/113/13 75/112/13 71/106/13 72/107/13 
f 73/109/14 64/98/14 11/1/14 12/114/14 
f 54/85/13 50/81/13 63/95/13 69/103/13 
f 56/87/13 54/85/13 69/103/13 71/106/13 
f 16/89/13 56/87/13 71/106/13 75/112/13 
f 52/116/15 16/6/15 15/5/15 77/115/15 
f 66/79/16 77/119/16 15/118/16 11/117/16 
f 61/123/1 79/122/1 78/121/1 66/120/1 
f 81/127/2 52/126/2 77/125/2 80/124/2 
f 78/131/4 80/130/4 77/129/4 66/128/4 
f 52/135/5 81/134/5 79/133/5 61/132/5 
f 29/123/1 83/122/1 82/121/1 49/120/1 
f 85/127/2 43/126/2 31/125/2 84/124/2 
f 82/131/4 84/130/4 31/129/4 49/128/4 
f 43/135/5 85/134/5 83/133/5 29/132/5 
f 90/140/4 89/139/4 88/138/4 87/137/4 86/136/4 
f 95/145/5 94/144/5 93/143/5 92/142/5 91/141/5 
f 89/139/4 97/147/4 96/146/4 88/138/4 
f 99/149/5 95/145/5 91/141/5 98/148/5 
f 87/137/4 78/128/4 86/136/4 
f 93/143/5 79/132/5 92/142/5 
f 100/150/4 87/137/4 88/138/4 
f 91/141/5 92/142/5 101/151/5 
f 102/152/4 100/150/4 88/138/4 96/146/4 
f 98/148/5 91/141/5 101/151/5 103/153/5 
f 104/154/4 78/128/4 87/137/4 100/150/4 
f 101/151/5 92/142/5 79/132/5 105/155/5 
f 79/123/17 94/157/17 90/156/17 78/120/17 
f 108/160/4 107/159/4 84/129/4 106/158/4 
f 85/135/5 111/163/5 110/162/5 109/161/5 
f 106/158/4 84/129/4 112/164/4 
f 85/135/5 109/161/5 113/165/5 
f 111/167/18 85/126/18 84/125/18 107/166/18 
f 116/170/4 115/169/4 114/168/4 
f 119/173/5 118/172/5 117/171/5 
f 123/177/19 122/176/19 121/175/19 120/174/19 
f 120/179/4 121/178/4 116/170/4 114/168/4 
f 122/181/5 123/180/5 119/173/5 117/171/5 
f 97/183/4 90/128/4 124/182/4 115/169/4 116/170/4 
f 117/171/5 118/172/5 125/185/5 94/132/5 99/184/5 
f 128/140/4 127/187/4 114/168/4 115/169/4 126/186/4 
f 131/189/5 130/144/5 129/188/5 118/172/5 119/173/5 
f 127/187/4 120/179/4 114/168/4 
f 123/180/5 131/189/5 119/173/5 
f 115/169/4 124/182/4 126/186/4 
f 129/188/5 125/185/5 118/172/5 
f 94/123/17 130/157/17 128/156/17 90/120/17 
f 133/191/4 132/190/4 108/164/4 
f 110/165/5 135/193/5 134/192/5 
f 137/160/4 136/159/4 107/129/4 132/190/4 133/191/4 
f 111/135/5 139/163/5 138/162/5 134/192/5 135/193/5 
f 139/167/18 111/126/18 107/125/18 136/166/18 
f 143/197/6 142/196/6 141/195/6 140/194/6 
f 145/76/20 143/199/20 140/198/20 144/1/20 
f 142/201/21 147/6/21 146/5/21 141/200/21 
f 140/203/12 141/202/12 146/78/12 144/77/12 
f 147/206/9 142/205/9 143/204/9 145/48/9 
f 151/210/6 150/209/6 149/208/6 148/207/6 
f 153/76/22 151/212/22 148/211/22 152/1/22 
f 150/214/23 155/6/23 154/5/23 149/213/23 
f 148/216/16 149/215/16 154/118/16 152/117/16 
f 155/89/13 150/219/13 151/218/13 153/217/13 
f 159/223/3 158/222/3 157/221/3 156/220/3 
f 161/4/24 159/23/24 156/22/24 160/1/24 
f 158/25/25 163/6/25 162/5/25 157/24/25 
f 156/27/4 157/26/4 162/12/4 160/11/4 
f 163/18/5 158/29/5 159/28/5 161/15/5 
f 165/123/1 153/122/1 152/121/1 164/120/1 
f 155/127/2 139/126/2 136/125/2 154/124/2 
f 152/131/4 154/130/4 136/129/4 164/128/4 
f 139/135/5 155/134/5 153/133/5 165/132/5 
f 130/123/1 145/122/1 144/121/1 128/120/1 
f 147/127/2 123/126/2 120/125/2 146/124/2 
f 144/131/4 146/130/4 120/129/4 128/128/4 
f 123/135/5 147/134/5 145/133/5 130/132/5 
f 168/227/6 167/226/6 166/225/6 40/224/6 
f 172/231/3 171/230/3 170/229/3 169/228/3 
f 167/226/6 174/233/6 173/232/6 166/225/6 
f 174/237/2 175/236/2 76/235/2 173/234/2 
f 175/239/3 172/231/3 169/228/3 76/238/3 
f 176/241/6 39/240/6 40/224/6 166/225/6 
f 173/232/6 177/242/6 176/241/6 166/225/6 
f 76/235/2 177/243/2 173/234/2 
f 178/239/6 168/227/6 40/224/6 36/244/6 
f 179/248/1 178/247/1 36/246/1 41/245/1 
f 171/230/3 179/233/3 41/242/3 170/229/3 
f 180/250/6 39/240/6 176/241/6 74/249/6 
f 73/252/6 47/251/6 180/250/6 74/249/6 
f 47/256/4 73/255/4 12/254/4 9/253/4 
f 177/242/6 72/257/6 74/249/6 176/241/6 
f 76/235/2 72/258/2 177/243/2 
f 175/245/5 174/261/5 178/260/5 179/259/5 
f 182/265/6 181/264/6 103/263/6 101/262/6 
f 183/269/26 182/268/26 101/267/26 105/266/26 
f 185/273/3 183/272/3 105/271/3 184/270/3 
f 186/275/3 185/273/3 184/270/3 81/274/3 
f 188/278/27 186/277/27 80/125/27 187/276/27 
f 100/150/4 187/279/4 80/129/4 104/154/4 
f 186/282/5 188/281/5 182/151/5 183/280/5 
f 192/286/6 191/285/6 190/284/6 189/283/6 
f 193/288/6 192/286/6 189/283/6 122/287/6 
f 190/284/6 195/290/6 194/289/6 189/283/6 
f 194/289/6 121/291/6 122/287/6 189/283/6 
f 196/265/6 193/288/6 122/287/6 117/262/6 
f 197/293/26 196/268/26 117/267/26 99/292/26 
f 200/275/3 188/295/3 199/294/3 198/274/3 
f 187/297/3 201/296/3 198/274/3 199/294/3 
f 181/269/26 197/293/26 99/292/26 103/266/26 
f 191/278/27 200/277/27 201/125/27 195/276/27 
f 116/150/4 195/279/4 201/129/4 102/154/4 
f 200/282/5 191/281/5 196/151/5 181/280/5 
f 203/301/18 202/300/18 109/299/18 110/298/18 
f 202/300/18 204/303/18 113/302/18 109/299/18 
f 204/307/3 205/306/3 83/305/3 113/304/3 
f 205/310/28 207/309/28 206/308/28 82/120/28 
f 206/311/4 108/160/4 112/164/4 82/128/4 
f 204/165/5 203/162/5 207/312/5 205/132/5 
f 208/314/18 203/303/18 110/302/18 134/313/18 
f 210/318/6 209/317/6 138/316/6 165/315/6 
f 209/301/18 208/314/18 134/313/18 138/298/18 
f 207/310/28 210/309/28 164/308/28 206/120/28 
f 164/311/4 137/160/4 108/164/4 206/128/4 
f 203/165/5 209/162/5 210/312/5 207/132/5 
f 214/322/5 213/321/5 212/320/5 211/319/5 
f 212/320/5 216/324/5 215/323/5 211/319/5 
f 218/18/5 214/322/5 211/319/5 217/325/5 
f 222/329/5 221/328/5 220/327/5 219/326/5 
f 224/331/5 222/329/5 219/326/5 223/330/5 
f 220/327/5 226/15/5 225/332/5 219/326/5 
f 215/323/5 216/324/5 224/331/5 223/330/5 
f 228/334/3 226/333/3 163/9/3 227/6/3 
f 225/332/5 226/15/5 228/335/5 
f 218/338/3 230/337/3 229/336/3 161/10/3 
f 218/18/5 217/325/5 230/339/5 
f 221/342/6 213/341/6 232/31/6 231/340/6 
f 226/345/1 221/344/1 231/343/1 162/1/1 
f 213/348/2 218/347/2 160/5/2 232/346/2 
f 231/342/4 232/341/4 160/12/4 162/11/4 
f 211/352/3 215/351/3 234/350/3 233/349/3 
f 235/356/1 217/355/1 211/354/1 233/353/1 
f 233/359/5 234/358/5 235/357/5 
f 237/362/3 223/361/3 219/360/3 236/4/3 
f 236/366/2 219/365/2 225/364/2 238/363/2 
f 238/369/5 237/368/5 236/367/5 
f 234/350/3 215/351/3 223/361/3 237/362/3 
f 238/363/2 225/364/2 228/345/2 227/4/2 
f 229/6/1 230/347/1 217/355/1 235/356/1 
f 235/357/5 234/358/5 237/368/5 238/369/5 227/371/5 229/370/5 


