g Mesh1
# Vertex Positions: 184
v -40 -5 62.00001
v -83 -5 62.00001
v -83 1 62.00001
v -40 1 62.00001
v -40 -5 40.00001
v -40 1 40.00001
v -83 -5 40.00001
v -83 1 40.00001
v -50 -5 -0.9999943
v -72 -5 -0.9999943
v -72 8.750001 -0.9999943
v -50 8.750001 -0.9999943
v -50 -5 -22.99999
v -50 8.750001 -22.99999
v -72 -5 -22.99999
v -72 8.750001 -22.99999
v -75 -17 153
v -101 -17 153
v -101 -11 153
v -75 -11 153
v -101 -17 87
v -75 -17 87
v -75 -11 87
v -101 -11 87
v -107 -33.00001 272
v -133 -33.00001 272
v -133 -27.00001 272
v -107 -27.00001 272
v -133 -33.00001 199
v -107 -33.00001 199
v -107 -27.00001 199
v -133 -27.00001 199
v -22 -24 153
v -48 -24 153
v -48 -18 153
v -22 -18 153
v -48 -24 87
v -22 -24 87
v -22 -18 87
v -48 -18 87
v -22 -40 272
v -48 -40 272
v -48 -34 272
v -22 -34 272
v -48 -40 199
v -22 -40 199
v -22 -34 199
v -48 -34 199
v -97 -50 370
v -123 -50 370
v -123 -44 370
v -97 -44 370
v -123 -50 300
v -97 -50 300
v -97 -44 300
v -123 -44 300
v -30 -55.5 370
v -30 -57 370
v -56 -57 370
v -56 -55.5 370
v -56 -55.5 300
v -56 -57 300
v -30 -57 300
v -30 -55.5 300
v -56 -51 370
v -30 -51 370
v -30 -51 300
v -56 -51 300
v -29 -55.5 370
v -29 -57 370
v -29 -55.5 300
v -29 -57 300
v -67 -52 431
v -66 -52 431
v -66 -52 432
v -67 -52 432
v -92 -52 431
v -92 -52 432
v -93 -52 432
v -93 -52 431
v -67 -71 397
v -67 -72 397
v -66 -72 397
v -66 -71 397
v -66 -52 397
v -67 -52 397
v -93 -71 397
v -93 -72 397
v -92 -72 397
v -92 -71 397
v -92 -52 397
v -93 -52 397
v -66 -72 432
v -93 -72 432
v -92 -71 431
v -67 -71 431
v -68 5.499998 196.5
v -90 5.499998 196.5
v -90 5.499999 202.5
v -68 5.499999 202.5
v -68 -25.5 196.5
v -68 -25.5 202.5
v -90 -25.5 202.5
v -90 -25.5 196.5
v -61 -41.5 309.5
v -61 -41.00002 309.5
v -88 -41.00002 309.5
v -88 -41.5 309.5
v -61 -39.00001 309.5
v -61 -6.5 309.5
v -88 -6.5 309.5
v -88 -39.00001 309.5
v -61 -6.5 315.5
v -88 -6.5 315.5
v -61 -41.5 315.5
v -88 -41.5 315.5
v -22 -26 199
v -22 -26 272
v -21 -40 272
v -21 -26 272
v -21 -40 199
v -21 -26 199
v -133 -19 272
v -133 -19 199
v -133 -33 272
v -134 -33 272
v -134 -19 272
v -134 -33 199
v -134 -19 199
v -133 -33 199
v -66 5.499999 202.5
v -66 7.499998 202.5
v -66 7.499998 196.5
v -66 5.499998 196.5
v -68 7.499998 202.5
v -68 7.499998 196.5
v -93 7.499998 202.5
v -93 5.499999 202.5
v -93 5.499998 196.5
v -93 7.499998 196.5
v -90 7.499998 202.5
v -90 7.499998 196.5
v -66 -25.5 202.5
v -66 -25.5 196.5
v -93 -25.5 202.5
v -93 -25.5 196.5
v -68 -25.50001 203.5
v -66 -25.50001 203.5
v -66 -25.50001 210
v -68 -25.50001 210
v -90 -25.50001 203.5
v -90 -25.50001 210
v -93 -25.50001 210
v -93 -25.50001 203.5
v -66 -27.50002 210
v -93 -27.50002 210
v -66 -27.50002 196.5
v -93 -27.50002 196.5
v -61 -41.00002 296
v -61 -39.00001 296
v -88 -41.00002 296
v -88 -39.00001 296
v -101 -3.000002 153
v -101 -3.000002 87
v -102 -17 153
v -102 -3.000002 153
v -102 -17 87
v -102 -3.000002 87
v -22 -10 87
v -22 -10 153
v -21 -24 153
v -21 -10 153
v -21 -24 87
v -21 -10 87
v -30 -41.5 300
v -30 -41.5 370
v -29 -41.5 370
v -29 -41.5 300
v -123 -36 370
v -123 -36 300
v -124 -50 370
v -124 -36 370
v -124 -50 300
v -124 -36 300
# Vertex UVs: 236
vt 12 -0.9999999
vt -9.499999 -1
vt -9.499995 2
vt 12.00001 2
vt 11.5 -0.9999999
vt 0.4999982 -1
vt 0.4999982 2
vt 11.5 2
vt -10.5 -0.9999999
vt -10.5 2
vt 10.5 -0.9999998
vt -11 -1
vt -11.00001 2
vt 10.5 2
vt 11.99999 -10.5
vt -9.500017 -10.5
vt -9.499997 0.5000019
vt 12.00001 0.5000004
vt 11.5 -11.00002
vt 0.4999981 -11
vt 0.4999981 10.5
vt 11.5 10.49998
vt 1.500001 -0.9999999
vt -9.499995 5.875
vt 1.500005 5.875
vt 0.4999983 5.875
vt 11.5 5.875
vt -10.5 5.875
vt -0.500001 -0.9999996
vt -0.500012 5.875
vt 10.49999 5.875
vt 1.499985 -10.5
vt 1.500005 0.5
vt 11.5 -0.5000207
vt 0.4999981 -0.5000034
vt 4.500004 -2
vt -8.499994 -2
vt -8.5 1
vt 4.499998 1
vt 9.500001 -2
vt -3.500001 -2
vt -3.5 1
vt 9.500002 1
vt 4.5 0
vt -8.499998 0
vt -8.50007 33.00002
vt 4.499929 33.00002
vt 1.000007 9.500004
vt 1 -3.5
vt -32.00001 -3.500003
vt -32 9.500001
vt 1 -2
vt -32.00001 -1.999997
vt -32 1.000002
vt 1.000008 0.9999988
vt -8.500074 36.50001
vt 4.499923 36.50001
vt 0.9999963 9.500004
vt -35.5 -3.500002
vt -35.5 9.500001
vt -35.49999 -1.999996
vt -35.5 1.000004
vt 0.9999847 0.9999986
vt 4.000004 -2
vt -8.999994 -2
vt -9 1
vt 3.999999 1
vt 10 -2
vt -3.000001 -2
vt -3 1
vt 10 1
vt 4 0
vt -8.999998 0
vt -9.00007 33.00002
vt 3.99993 33.00002
vt 1 -3
vt -32.00001 -3.000003
vt -32 10
vt 1.000008 10
vt 33.00002 -1.999997
vt 0 -2
vt 0 1
vt 33.00002 1.000003
vt -9.000074 36.50001
vt 3.999923 36.50001
vt -35.5 -3.000002
vt -35.5 10
vt 0.9999962 10
vt 36.50001 -1.999996
vt 36.50001 1.000004
vt -8.500072 35.00002
vt 4.499927 35.00002
vt -34.00001 -3.500003
vt -34 9.500001
vt -34.00001 -1.999997
vt -34 1.000002
vt 4.000003 -1.25
vt -8.999996 -1.25
vt 10 -1.25
vt -3.000001 -1.25
vt -34.00001 -3.000003
vt -34 10
vt 4.500002 -1.25
vt 1.000002 -1.25
vt -34.00001 -1.249997
vt -3.5 -1.25
vt 35.00002 -1.999997
vt 35.00002 1.000003
vt -9.000072 35.00002
vt -16 -3.000001
vt -16 -3.500001
vt -16.5 -3.500001
vt -16.5 -3.000001
vt -16 9.500001
vt -16.5 9.500001
vt -16.5 10
vt -16 10
vt -3.000001 -1.5
vt -3.500001 -1.5
vt -3.5 8.000003
vt -3 8.000003
vt 10 -1.5
vt 9.500001 -1.5
vt 9.500002 8.000004
vt 10 8.000004
vt -9.000019 8.000003
vt 4.499979 8.000004
vt -16.5 -1.999998
vt -16.5 8.000001
vt 0.9999943 7.999999
vt 17.5 -1.999998
vt 0 8.000003
vt 17.5 8.000006
vt -9.000034 17.5
vt 4.499964 17.5
vt 3.99998 7.500003
vt -8.500017 7.500003
vt 0.9999973 7.499998
vt -16 7.5
vt -16 -1.999998
vt 17 -1.999998
vt 17 7.500004
vt 0 7.500003
vt -8.500033 17
vt 3.999965 17
vt 3.499996 0.9999988
vt -7.500001 0.9999991
vt -7.499992 -2
vt 3.500004 -2.000001
vt -15.5 0.9999998
vt -15.5 -1.999998
vt 16.5 -1.999999
vt 16.5 1.000001
vt 0.7500095 -3.5
vt 0.7500076 10
vt -0.2499938 -3.5
vt -0.2499957 10
vt -16.5 1.000001
vt 17.5 1.000002
vt 0 5
vt 36.50001 5.000005
vt 3.99999 5
vt 4.49999 5.000001
vt -35.5 5.000001
vt 0.9999924 4.999996
vt -3.499999 5
vt -2.999999 5.000001
vt 0.9999967 0.9999949
vt 4.499966 16.5
vt 3.499966 16.5
vt 3.499964 17.5
vt -15.5 -2.500001
vt -15.5 -3.500001
vt -16.5 -2.500001
vt -7.500032 16.5
vt -9.000032 16.5
vt -7.500034 17.5
vt -15.5 8.500001
vt -16.5 8.500001
vt -15.5 10
vt 8.34352E-07 -2.5
vt 9.463365E-07 -3.5
vt -7.370431E-07 8.500002
vt -9.610121E-07 10
vt -10.75 -2.5
vt -10.75 -3.5
vt -14 -3.5
vt -14 -2.5
vt -10.25 -2.5
vt -10.25 -3.5
vt -10.75 8.500002
vt -14 8.500001
vt -14 10
vt -10.75 10
vt -10.25 8.500002
vt -10.25 10
vt -7.249998 8.500002
vt -7.249999 -2.5
vt -7.250003 -4.976988E-06
vt -14 -3.740191E-06
vt -14 1.000001
vt -7.250006 0.9999993
vt 15 -2.622604E-06
vt 8.25 -4.127622E-06
vt 8.249999 1
vt 15 1.000002
vt 10 -4.75347E-06
vt -3.500001 -4.87268E-06
vt 4.499984 8.250002
vt -9.000016 8.250001
vt -9.000032 15.00001
vt 4.499968 15.00001
vt -7.249998 -2.000003
vt -13.99999 -2.000002
vt -13.99999 -0.9999983
vt -7.25 -0.9999998
vt 15 -2.000001
vt 8.249999 -2.000003
vt 8.249999 -0.999999
vt 15 -0.9999977
vt -3.5 -0.9999998
vt 10 -1
vt -7.249999 -3.5
vt -7.249998 10
vt -32 5.000001
vt 33.00001 5.000005
vt -32 -3.000002
vt 33.00001 0.2500045
vt -2.000001 0.2500002
vt -2.000001 5
vt 3 -2
vt 2.999996 4.999996
vt 3 -3.5
vt 3.000004 -3
vt 2.999999 0.999998
vt -2.000001 -2
# Vertex Normals: 6
vn 0 0 1
vn 1 0 0
vn -1 0 0
vn 0 0 -1
vn 0 -1 0
vn 0 1 0
# Faces: 141
f 4/4/1 3/3/1 2/2/1 1/1/1 
f 6/8/2 4/7/2 1/6/2 5/5/2 
f 3/7/3 8/10/3 7/9/3 2/6/3 
f 8/14/4 6/13/4 5/12/4 7/11/4 
f 1/18/5 2/17/5 7/16/5 5/15/5 
f 8/22/6 3/21/6 4/20/6 6/19/6 
f 12/25/1 11/24/1 10/2/1 9/23/1 
f 14/27/2 12/26/2 9/6/2 13/5/2 
f 11/26/3 16/28/3 15/9/3 10/6/3 
f 16/31/4 14/30/4 13/29/4 15/11/4 
f 9/33/5 10/17/5 15/16/5 13/32/5 
f 16/22/6 11/21/6 12/35/6 14/34/6 
f 20/39/1 19/38/1 18/37/1 17/36/1 
f 24/43/4 23/42/4 22/41/4 21/40/4 
f 17/47/5 18/46/5 21/45/5 22/44/5 
f 19/51/6 20/50/6 23/49/6 24/48/6 
f 23/55/2 20/54/2 17/53/2 22/52/2 
f 28/39/1 27/38/1 26/37/1 25/36/1 
f 32/43/4 31/42/4 30/41/4 29/40/4 
f 25/57/5 26/56/5 29/45/5 30/44/5 
f 27/60/6 28/59/6 31/49/6 32/58/6 
f 31/63/2 28/62/2 25/61/2 30/52/2 
f 36/67/1 35/66/1 34/65/1 33/64/1 
f 40/71/4 39/70/4 38/69/4 37/68/4 
f 33/75/5 34/74/5 37/73/5 38/72/5 
f 40/79/6 35/78/6 36/77/6 39/76/6 
f 35/83/3 40/82/3 37/81/3 34/80/3 
f 44/67/1 43/66/1 42/65/1 41/64/1 
f 48/71/4 47/70/4 46/69/4 45/68/4 
f 41/85/5 42/84/5 45/73/5 46/72/5 
f 48/88/6 43/87/6 44/86/6 47/76/6 
f 43/90/3 48/82/3 45/81/3 42/89/3 
f 52/39/1 51/38/1 50/37/1 49/36/1 
f 56/43/4 55/42/4 54/41/4 53/40/4 
f 49/92/5 50/91/5 53/45/5 54/44/5 
f 51/94/6 52/93/6 55/49/6 56/48/6 
f 55/55/2 52/96/2 49/95/2 54/52/2 
f 60/98/1 59/65/1 58/64/1 57/97/1 
f 64/100/4 63/69/4 62/68/4 61/99/4 
f 66/67/1 65/66/1 60/98/1 57/97/1 
f 68/71/4 67/70/4 64/100/4 61/99/4 
f 68/79/6 65/102/6 66/101/6 67/76/6 
f 57/97/1 58/64/1 70/36/1 69/103/1 
f 69/105/2 70/95/2 72/52/2 71/104/2 
f 71/106/4 72/41/4 63/69/4 64/100/4 
f 65/108/3 68/82/3 62/81/3 59/107/3 
f 70/92/5 59/109/5 62/73/5 72/44/5 
f 76/113/6 75/112/6 74/111/6 73/110/6 
f 80/117/6 79/116/6 78/115/6 77/114/6 
f 78/115/6 76/113/6 73/110/6 77/114/6 
f 84/119/4 83/41/4 82/69/4 81/118/4 
f 86/121/4 85/120/4 84/119/4 81/118/4 
f 73/110/6 74/111/6 85/49/6 86/76/6 
f 90/123/4 89/40/4 88/68/4 87/122/4 
f 92/125/4 91/124/4 90/123/4 87/122/4 
f 92/88/6 80/117/6 77/114/6 91/58/6 
f 81/118/4 82/69/4 89/40/4 90/123/4 
f 75/127/1 79/126/1 94/65/1 93/36/1 
f 85/130/2 75/129/2 93/128/2 83/52/2 
f 79/133/3 92/132/3 88/81/3 94/131/3 
f 93/135/5 94/134/5 88/73/5 83/44/5 
f 77/137/4 73/136/4 96/64/4 95/37/4 
f 96/140/3 73/139/3 86/138/3 81/52/3 
f 90/81/2 91/143/2 77/142/2 95/141/2 
f 96/145/6 81/72/6 90/45/6 95/144/6 
f 100/149/5 99/148/5 98/147/5 97/146/5 
f 102/81/3 100/151/3 97/150/3 101/82/3 
f 104/55/2 98/153/2 99/152/2 103/52/2 
f 108/88/4 107/155/4 106/154/4 105/49/4 
f 112/157/4 111/116/4 110/112/4 109/156/4 
f 110/39/6 111/66/6 114/65/6 113/36/6 
f 105/55/2 110/158/2 113/128/2 115/52/2 
f 111/159/3 108/82/3 116/81/3 114/131/3 
f 108/71/5 105/42/5 115/41/5 116/68/5 
f 113/135/1 114/134/1 116/73/1 115/44/1 
f 118/161/3 117/160/3 47/82/3 44/90/3 
f 120/163/1 118/162/1 41/64/1 119/36/1 
f 122/165/2 120/164/2 119/61/2 121/52/2 
f 117/167/4 122/166/4 121/41/4 46/69/4 
f 119/57/5 41/85/5 46/72/5 121/44/5 
f 117/76/6 118/86/6 120/59/6 122/49/6 
f 124/165/2 123/164/2 27/62/2 32/168/2 
f 123/163/1 127/162/1 126/64/1 125/36/1 
f 127/161/3 129/160/3 128/81/3 126/89/3 
f 129/167/4 124/166/4 130/41/4 128/69/4 
f 129/76/6 127/86/6 123/59/6 124/49/6 
f 134/150/2 133/158/2 132/128/2 131/151/2 
f 132/135/1 135/171/1 100/170/1 131/169/1 
f 136/174/4 133/112/4 134/173/4 97/172/4 
f 140/159/3 139/153/3 138/152/3 137/131/3 
f 141/177/1 137/134/1 138/176/1 99/175/1 
f 139/180/4 140/116/4 142/179/4 98/178/4 
f 135/171/1 141/177/1 99/175/1 100/170/1 
f 142/179/4 136/174/4 97/172/4 98/178/4 
f 144/82/2 134/150/2 131/151/2 143/81/2 
f 143/39/1 131/169/1 100/170/1 102/146/1 
f 97/172/4 134/173/4 144/182/4 101/181/4 
f 139/153/3 146/168/3 145/52/3 138/152/3 
f 138/176/1 145/66/1 103/147/1 99/175/1 
f 146/184/4 139/180/4 98/178/4 104/183/4 
f 133/39/6 140/66/6 137/65/6 132/36/6 
f 150/188/6 149/187/6 148/186/6 147/185/6 
f 148/186/6 143/190/6 102/189/6 147/185/6 
f 154/194/6 153/193/6 152/192/6 151/191/6 
f 145/196/6 154/194/6 151/191/6 103/195/6 
f 152/192/6 150/188/6 147/185/6 151/191/6 
f 147/185/6 102/189/6 103/195/6 151/191/6 
f 103/195/6 102/189/6 101/198/6 104/197/6 
f 149/39/1 153/66/1 156/73/1 155/44/1 
f 144/202/2 149/201/2 155/200/2 157/199/2 
f 153/206/3 146/205/3 158/204/3 156/203/3 
f 146/71/4 144/42/4 157/208/4 158/207/4 
f 155/212/5 156/211/5 158/210/5 157/209/5 
f 160/216/2 109/215/2 106/214/2 159/213/2 
f 112/220/3 162/219/3 161/218/3 107/217/3 
f 162/222/4 160/221/4 159/41/4 161/68/4 
f 106/212/5 107/211/5 161/210/5 159/209/5 
f 162/224/6 112/193/6 109/187/6 160/223/6 
f 164/165/2 163/225/2 19/54/2 24/168/2 
f 163/163/1 166/162/1 165/64/1 18/36/1 
f 166/226/3 168/160/3 167/81/3 165/80/3 
f 168/167/4 164/166/4 21/41/4 167/69/4 
f 18/47/5 165/75/5 167/72/5 21/44/5 
f 168/76/6 166/227/6 163/50/6 164/49/6 
f 170/226/3 169/160/3 39/82/3 36/83/3 
f 172/163/1 170/162/1 33/64/1 171/36/1 
f 174/165/2 172/225/2 171/53/2 173/52/2 
f 169/167/4 174/166/4 173/41/4 38/69/4 
f 171/47/5 33/75/5 38/72/5 173/44/5 
f 169/76/6 170/227/6 172/50/6 174/49/6 
f 176/226/3 175/230/3 67/229/3 66/228/3 
f 177/163/1 176/162/1 57/64/1 69/36/1 
f 178/232/2 177/225/2 69/53/2 71/231/2 
f 175/167/4 178/166/4 71/41/4 64/69/4 
f 175/234/6 176/227/6 177/50/6 178/233/6 
f 180/232/2 179/225/2 51/54/2 56/235/2 
f 179/163/1 182/162/1 181/64/1 50/36/1 
f 182/226/3 184/230/3 183/236/3 181/80/3 
f 184/167/4 180/166/4 53/41/4 183/69/4 
f 50/47/5 181/75/5 183/64/5 53/36/5 
f 184/234/6 182/227/6 179/50/6 180/233/6 


