g Mesh1
# Vertex Positions: 264
v -40 -5 40.00001
v -40 -5 62.00001
v -40 1 62.00001
v -40 1 40.00001
v -83 -5 62.00001
v -83 -5 40.00001
v -83 1 40.00001
v -83 1 62.00001
v -50 -5 -0.9999943
v -72 -5 -0.9999943
v -72 8.750001 -0.9999943
v -50 8.750001 -0.9999943
v -50 -5 -22.99999
v -50 8.750001 -22.99999
v -72 -5 -22.99999
v -72 8.750001 -22.99999
v -48 -5.000001 128
v -75 -5.000001 128
v -75 0.9999986 128
v -48 0.9999986 128
v -48 -5.000001 70
v -75 -5.000001 70
v -75 0.9999986 70
v -48 0.9999986 70
v -48 -5.000001 62
v -75 -5.000001 62
v -75 0.9999986 62
v -48 0.9999986 62
v -83 32.74999 128
v -83 32.74999 127.5
v -83 32.99999 127.5
v -83 32.99999 128
v -83 32.74999 105.5
v -83 32.74999 70
v -83 32.99999 70
v -83 32.99999 105.5
v -83 0.999999 128
v -83 0.999999 127.5
v -83 0.999999 105.5
v -83 0.999999 70
v -82.5 32.74999 62
v -76 32.74999 62
v -76 32.99999 62
v -82.5 32.99999 62
v -83 32.74999 62
v -83 32.99999 62
v -75 32.74999 127.5
v -75 32.74999 128
v -75 32.99999 128
v -75 32.99999 127.5
v -75 32.74999 70
v -75 32.74999 105.5
v -75 32.99999 105.5
v -75 32.99999 70
v -75 0.999999 127.5
v -75 0.999999 105.5
v -75 32.74999 62
v -75 32.99999 62
v -76 -4.999989 127.5
v -82.5 -4.999989 127.5
v -82.5 -4.999989 128
v -76 -4.999989 128
v -83 -4.999989 128
v -83 -4.999989 127.5
v -82.5 -4.999989 105.5
v -76 -4.999989 105.5
v -76 -4.999989 70
v -82.5 -4.999989 70
v -83 -4.999989 105.5
v -83 -4.999989 70
v -75 -4.999989 128
v -48 7.749989 155.5
v -48 8.583322 156
v -48 32.74999 156
v -48 32.74999 155.5
v -48 -4.750006 155.5
v -48 -4.750006 156
v -98.5 -4.750006 156
v -98.5 32.74999 156
v -98.5 -4.750006 148
v -98.5 32.74999 148
v -48 -4.750006 148
v -48 32.74999 148
v -48 -4.999989 147.85
v -48 -32.25001 131.5
v -48 -35.75001 138.5
v -48 -18.92143 148
v -48 -4.999989 148
v -48 -4.999989 155.5
v -48 -5.63572 155.5
v -48 -4.999989 155.8589
v -98.5 -35.75001 138.5
v -98.5 -32.25001 131.5
v -75 -37 70
v -70 -37 70
v -70 -37 128
v -75 -37 128
v -98 -39.75004 128
v -98 -43 128
v -98 -43 70
v -98 -39.75004 70
v -98 -37 70
v -98 -37 128
v -75 -39.75004 62
v -75 -43 62
v -70 -43 62
v -70 -39.75004 62
v -70 -37 62
v -75 -37 62
v -98 -43 62
v -98 -39.75004 62
v -70 -43 128
v -98 -5 70
v -98.5 -37 70
v -98.5 -5 70
v -98 -37 62
v -98 -5 62
v -98.5 -5 62
v -98.5 -37 62
v -98.5 -39.75004 70
v -98.5 -39.75004 62
v -83 -5 70
v -83 -37 70
v -83 -37 62
v -83 -39.75004 62
v -98 0.9999998 70
v -98.5 0.9999998 70
v -98.5 32.74999 70
v -98 32.74999 70
v -98.5 0.9999998 62
v -98 0.9999998 62
v -98 32.74999 62
v -98.5 32.74999 62
v -76 -5 70
v -76 -37 70
v -76 -37 62
v -76 -5 62
v -76 -39.75004 62
v -76 0.9999998 62
v -83 -5 127.5
v -105 -5 127.5
v -105 1 127.5
v -105 -5 105.5
v -83 -5 105.5
v -105 1 105.5
v -82.5 -5 105.5
v -82.5 -5 127.5
v -40 32.74999 128
v -40 32.74999 148
v -40 32.99999 148
v -40 32.99999 128
v -48 32.74999 128
v -48 32.99999 128
v -48 32.99999 148
v -40 0.999999 128
v -40 0.999999 148
v -48 0.999999 148
v -40 32.74999 155.5
v -40 32.99999 155.5
v -48 32.99999 155.5
v -40 0.999999 151.45
v -40 7.749989 155.5
v -40 0.999999 155.5
v -40 32.74999 70
v -40 32.99999 70
v -48 32.74999 70
v -48 32.99999 70
v -40 0.999999 70
v -40 -4.750006 148
v -40 -4.750006 128
v -40 -4.999989 128
v -40 -4.999989 147.85
v -48 -4.750006 128
v -48 -4.999989 147.85
v -48 -4.999989 128
v -40 -4.999989 148
v -40 -4.999989 155.5
v -40 -4.750006 155.5
v -40 -4.750006 76.5
v -40 -4.750006 70
v -40 -4.999989 70
v -40 -4.999989 76.99996
v -48 -4.999989 70
v -48 -4.999989 76.99996
v -40 -1.500007 70
v -21 -5 70
v -21 -23.49999 70
v -40 -23.49999 70
v -40 -5 70
v -40 -23.49999 62
v -21 -23.49999 62
v -21 -5 62
v -21 1.000001 70
v -21 32.99999 70
v -21 1.000001 62
v -21 32.99999 62
v -40 32.99999 62
v -48 -23.49999 70
v -48 -23.49999 62
v -48 32.99999 62
v 87.5 -40.5 116
v 87.5 -106 116
v 87.5 -106 146.5
v 87.5 -40.5 146.5
v 59.5 -40.5 146.5
v 59.5 -106 146.5
v 59.5 -106 116
v 59.5 -40.5 116
v 87.5 -4.000015 146.5
v 87.5 -4.000015 116
v 59.5 -4.000015 116
v 59.5 -4.000015 146.5
v 87.5 -40.5 80.5
v 87.5 -106 80.5
v 87.5 -106 109
v 87.5 -40.5 109
v 59.5 -40.5 109
v 59.5 -106 109
v 59.5 -106 80.5
v 59.5 -40.5 80.5
v 87.5 -4.000015 109
v 87.5 -4.000015 80.5
v 59.5 -4.000015 80.5
v 59.5 -4.000015 109
v -2.000002 -38.49999 125
v -1.999998 -38.49999 78
v -1.999998 11.49999 78
v -2.000002 11.49999 125
v 5.999998 -38.49999 125
v 5.999998 11.49999 125
v 6 -38.49999 78
v 6 11.49999 78
v 112.5631 -41.19038 113
v 119.3246 -43.00212 99
v 133.9478 11.57267 99
v 127.1864 13.3844 113
v 127.052 -45.07267 99
v 141.6752 9.502123 99
v 127.052 -45.07267 113
v 141.6752 9.502121 113
v 117.5 -78.5 146.5
v 89.5 -78.5 146.5
v 89.5 -72.5 146.5
v 117.5 -72.5 146.5
v 117.5 -78.5 80.5
v 117.5 -72.5 80.5
v 89.5 -78.5 80.5
v 89.5 -72.5 80.5
v 119.3246 -43.00212 127
v 112.5631 -41.19038 113
v 127.1864 13.38441 113
v 133.9479 11.57266 127
v 127.052 -45.07267 127
v 141.6753 9.502123 127
v 127.052 -45.07267 113
v 141.6753 9.502123 113
v -2.000002 -92.49999 125
v -1.999998 -92.49999 78
v -1.999998 -42.50001 78
v -2.000002 -42.50001 125
v 5.999998 -92.49999 125
v 5.999998 -42.50001 125
v 6 -92.49999 78
v 6 -42.50001 78
# Vertex UVs: 392
vt 11.5 -0.9999999
vt 0.4999982 -1
vt 0.4999982 2
vt 11.5 2
vt -10.5 -0.9999999
vt -10.5 2
vt 10.5 -0.9999998
vt -11 -1
vt -11.00001 2
vt 10.5 2
vt 11.99999 -10.5
vt -9.500017 -10.5
vt -9.499997 0.5000019
vt 12.00001 0.5000004
vt 11.5 -11.00002
vt 0.4999981 -11
vt 0.4999981 10.5
vt 11.5 10.49998
vt 1.500001 -0.9999999
vt -9.499999 -1
vt -9.499995 5.875
vt 1.500005 5.875
vt 0.4999983 5.875
vt 11.5 5.875
vt -10.5 5.875
vt -0.500001 -0.9999996
vt -0.500012 5.875
vt 10.49999 5.875
vt 1.499985 -10.5
vt 1.500005 0.5
vt 11.5 -0.5000207
vt 0.4999981 -0.5000034
vt 5.000005 -2
vt -8.499994 -2
vt -8.5 1
vt 5 1
vt 4.999991 4.000002
vt -8.500007 4.000002
vt -8.50007 33.00002
vt 4.999928 33.00002
vt -2.999994 9.500005
vt -3.000001 -3.999999
vt -32.00001 -4.000002
vt -32 9.500001
vt 5 0
vt -8.499998 0
vt 1.000007 9.500005
vt 0.9999998 -3.999998
vt 33.00002 13.875
vt 32.75003 13.875
vt 32.75003 14
vt 33.00002 14
vt 21.75002 13.875
vt 4.000002 13.875
vt 4.000002 14
vt 21.75002 14
vt 33.00002 -1.999997
vt 32.75003 -1.999997
vt 21.75002 -1.999999
vt 4.000002 -2
vt 13.25001 13.875
vt 10 13.87499
vt 10 13.99999
vt 13.25001 14
vt 0 13.875
vt 0 14
vt 13.50001 13.875
vt 13.50001 14
vt -31.74996 13.87499
vt -31.99995 13.87499
vt -31.99995 13.99999
vt -31.74996 13.99999
vt -2.999941 13.87499
vt -20.74996 13.87499
vt -20.74996 13.99999
vt -2.999941 13.99999
vt -31.75002 -1.999997
vt -32.00002 -1.999997
vt -3.000001 -1.999999
vt -20.75002 -1.999998
vt 1.000061 13.87499
vt 1.000061 13.99999
vt 9.500003 13.87499
vt 9.500003 13.99999
vt -9.000065 32.75003
vt -12.25007 32.75003
vt -12.25007 33.00002
vt -9.000066 33.00002
vt 33.00002 -4.999992
vt 32.75003 -4.999992
vt -12.50007 32.75003
vt -12.50007 33.00002
vt -12.25005 21.75002
vt -9.000043 21.75002
vt -9.000007 4.000002
vt -12.25001 4.000002
vt 21.75002 -4.999993
vt 4.000002 -4.999995
vt -12.50001 4.000002
vt -12.50005 21.75002
vt -8.49999 -4.999994
vt -12.49999 -4.999994
vt -12.50002 14
vt -8.500024 14
vt 1.000023 9.500003
vt -31.99999 13.50001
vt 1.000032 13.50001
vt -24.74998 4.249997
vt -24.99998 4.666664
vt -24.99992 16.74999
vt -24.74992 16.74999
vt -24.75001 -1.999997
vt -25.00001 -1.999997
vt -20.25 -2.000001
vt -20.24998 16.75001
vt 5.000023 16.75001
vt 26.00002 -1.999997
vt 22.00001 -1.999998
vt 21.99997 16.74999
vt 25.99997 16.75
vt 21.25 -2.000001
vt -4 -2
vt -3.999997 16.75
vt 21.25001 16.75
vt -21.00002 -4
vt -25.00001 -4.000003
vt -25.00001 21.25001
vt -21.00001 21.25001
vt -20.92492 16.625
vt -12.74998 2.999998
vt -16.25001 1.250003
vt -20.99996 9.664284
vt -20.99992 16.625
vt -24.74992 16.625
vt -24.74992 16.30714
vt -24.92936 16.625
vt 5 -0.798246
vt -20.25001 -0.7982506
vt 17.25 1.249993
vt 13.75 2.99999
vt 21.25 1.014853
vt -3.999992 1.014851
vt 4.99997 17.22458
vt -20.25006 17.22462
vt -20.25008 21.0878
vt 4.999949 21.08776
vt -3 -1.499998
vt -32.00001 -1.500002
vt 33.00002 -0.3750159
vt 4.000002 -0.3750187
vt 4.000002 1
vt 33.00002 1.000003
vt -32 10
vt -2.999993 10
vt -1.5 -0.375019
vt -1.5 -2
vt -4 -0.3750189
vt -4 1
vt -1.5 0.9999999
vt 1.000001 -1.499998
vt 0 -2
vt 0 -0.3750191
vt 10 -0.3750193
vt 10 -2
vt -8.999994 -2
vt -9 1
vt 1 -2
vt -32 1.000002
vt 1.000008 0.9999989
vt -8.999998 0
vt -20 -2.124999
vt -20.00002 -18.12501
vt -20.25002 -18.12501
vt -20.25 -2.124999
vt 21 -18.125
vt 21.00001 -2.124997
vt 21.25001 -2.124997
vt 21.25 -18.125
vt -20.00002 -19.50002
vt -20.25002 -19.50002
vt 21.25 -19.50002
vt 21 -19.50002
vt -20.00005 22.00002
vt -20.25005 22.00002
vt -20.25006 26.00002
vt -20.00006 26.00002
vt -12.5 -2.124997
vt -12.50002 -18.125
vt 13.5 -18.125
vt 13.5 -2.124997
vt 13.5 -19.50002
vt -20 0.8750029
vt -20.25 0.8750028
vt -19.99998 16.75001
vt 21.25001 0.8750029
vt 21.00001 0.8750029
vt 21.00001 16.75
vt -21.00001 21.00001
vt -25.00001 21.00001
vt -12.5 0.8750047
vt -12.49998 16.75001
vt 13.5 0.8750029
vt 13.50001 16.75
vt -21.00001 13.50001
vt -25.00001 13.5
vt -9 -2.124997
vt -9.000014 -18.125
vt 10 -18.125
vt 10 -2.124997
vt 10 -19.50002
vt -8.5 -2.124997
vt -8.500014 -18.125
vt -21.00001 -2.124994
vt -21.00009 -18.12499
vt -25.00009 -18.12499
vt -25.00002 -2.124994
vt 9.5 -18.125
vt 9.500002 -2.124997
vt 9.5 -19.50002
vt 10 0.8750029
vt 10 16.75
vt -21 0.8750043
vt -25 0.8750043
vt -20.99992 16.74999
vt 9.500002 0.8750029
vt 9.500004 16.75
vt 26.00005 -19.50001
vt 22.00005 -19.50001
vt -9.499995 2
vt 1.500007 2
vt -0.5000057 2
vt 1.749983 -10.5
vt 1.750003 0.500001
vt -41.99995 13.87499
vt -41.99995 13.99999
vt 43.00001 13.87501
vt 33 13.875
vt 33 14
vt 43.00001 14.00001
vt -42 9.499998
vt -41.99999 13.50001
vt -32 -1.999997
vt -42 -1.999996
vt 43.00001 -1.999994
vt 33 -1.999995
vt -45.74995 13.87499
vt -45.74995 13.99999
vt 46.75001 13.87501
vt 46.75001 14.00001
vt -45.75 9.499997
vt -45.74999 13.50001
vt -43.725 -1.999996
vt -45.74999 1.374997
vt -45.75 -1.999995
vt -2.999962 13.87499
vt -2.999961 13.99999
vt -2.999979 9.500003
vt -2.999975 13.50001
vt -42 -4.874997
vt -32 -4.874998
vt -32 -4.999989
vt -41.92501 -4.999988
vt 33 -4.874999
vt 43.00001 -4.874997
vt 42.92501 -4.999988
vt 33 -4.99999
vt -8.50008 42.92502
vt -8.500061 33.00001
vt -12.50007 33.00001
vt -12.50008 42.92502
vt -42 -4.999988
vt -8.50008 43.00001
vt -12.50008 43.00001
vt -45.75 -4.999988
vt -45.75 -4.874996
vt -12.50009 46.75001
vt -8.500088 46.75001
vt -6.250008 -4.875
vt -3.000009 -4.875
vt -3.00001 -4.999991
vt -6.49999 -4.999991
vt -8.500012 7.499983
vt -12.50002 7.499983
vt -3.000005 -3.250002
vt 1.000008 -4.999999
vt 1.000024 -14.25
vt -8.499972 -14.25
vt 9.499999 -5
vt 9.499998 -14.25
vt -2.738696E-05 -14.25
vt -2.650917E-05 -5.000005
vt 0.9999752 14
vt 9.499999 -1.999999
vt -2.622447E-05 -2.000004
vt -2.470612E-05 13.99999
vt -12.49997 -14.25
vt 4.000002 -14.25
vt 0 -14.25
vt 0 -5.000003
vt 13.50001 -4.999998
vt 13.50001 -14.24999
vt 13.50001 -1.999997
vt 0.9999571 -14.24999
vt -3.000047 -14.24999
vt 1.000013 0
vt -12.5 0
vt 1.000007 4.000002
vt 1.000043 -5.349516E-06
vt -2.999957 -7.614492E-06
vt -2.999986 13.50001
vt 1.000014 13.50001
vt -16.75 -0.7499982
vt -16.75008 -33.5
vt -32.00007 -33.5
vt -31.99999 -0.749997
vt 33.00002 -0.7499936
vt 33.00002 -33.50001
vt 17.75001 -33.50001
vt 17.75001 -0.7499974
vt -31.99995 17.49999
vt -16.74996 17.49999
vt 17.75001 17.5
vt 33.00002 17.5
vt -16.75 -4
vt -16.75 10
vt 0.9999857 -0.7500008
vt 0.9999087 -33.5
vt -13.25008 -33.5
vt -13.25 -0.7499982
vt 14.25001 -0.7499974
vt 14.25001 -33.50001
vt 0 -33.50002
vt 0 -0.7500012
vt -13.24996 17.49999
vt 1.000029 17.49999
vt 0 17.49999
vt 14.25001 17.5
vt -13.25 -4
vt -13.25 10
vt 1.000008 10
vt 5.000058 -33.50001
vt -8.99994 -33.50002
vt -9.000031 17.49999
vt 4.999968 17.5
vt 10 -33.5
vt -3.999997 -33.5
vt -3.999999 17.49999
vt 10 17.49999
vt 1.000018 -11
vt -22.49998 -11
vt -22.50002 14
vt 0.9999686 -10.99999
vt -3.000035 -10.99999
vt 4.000003 -11
vt 1.90735E-06 -11
vt 23.50004 -10.99999
vt -2.707855E-05 -11
vt 23.50004 14
vt -22.50002 1.90735E-06
vt -22.50001 4.000003
vt 1.000019 4.000002
vt -3.00001 23.50002
vt 0.9999897 23.50002
vt 5.000002 -0.7499976
vt -9 -0.7500022
vt 10 -0.7500007
vt -3.999997 -0.7499995
vt -9.000041 17.75002
vt -9.000032 14.25001
vt 4.999965 14.25001
vt 4.999956 17.75002
vt -4.763377 -14.24999
vt -12.49999 -14.25001
vt -5.500008 14.00002
vt 6.499995 -14.25001
vt 6.500004 14.00004
vt 13.50002 14.00005
vt -5.499991 5.288462E-06
vt -12.49998 -1.192091E-06
vt -12.5 3.999998
vt -5.500023 7.5
vt 1.000029 6.5
vt -6.462052 6.521658
vt 0 1
vt 10 0.9999996
vt -5.499976 -14.24999
vt -13.23666 -14.25002
vt -13.23669 14
vt -12.49997 7.423533
vt -5.500009 4.000001
vt -2.999967 6.499997
vt -6.49998 13.4471
# Vertex Normals: 15
vn 1 0 0
vn -1 0 0
vn 0 0 -1
vn 0 -1 0
vn 0 1 0
vn 0 0 1
vn 0 -0.4915946 0.8708243
vn 0 0.5144957 -0.857493
vn 0 -0.8944272 -0.4472136
vn -0.8639504 0.2314949 -0.4472138
vn 0.9659259 -0.2588191 1.192093E-07
vn -0.2588191 -0.9659258 0
vn 0.2576317 0.966243 0.0007023211
vn -0.8639503 0.2314948 0.4472136
vn 0.2588191 0.9659258 9.620791E-08
# Faces: 195
f 4/4/1 3/3/1 2/2/1 1/1/1 
f 8/3/2 7/6/2 6/5/2 5/2/2 
f 7/10/3 4/9/3 1/8/3 6/7/3 
f 2/14/4 5/13/4 6/12/4 1/11/4 
f 7/18/5 8/17/5 3/16/5 4/15/5 
f 12/22/6 11/21/6 10/20/6 9/19/6 
f 14/24/1 12/23/1 9/2/1 13/1/1 
f 11/23/2 16/25/2 15/5/2 10/2/2 
f 16/28/3 14/27/3 13/26/3 15/7/3 
f 9/30/4 10/13/4 15/12/4 13/29/4 
f 16/18/5 11/17/5 12/32/5 14/31/5 
f 20/36/6 19/35/6 18/34/6 17/33/6 
f 17/40/4 18/39/4 22/38/4 21/37/4 
f 19/44/5 20/43/5 24/42/5 23/41/5 
f 22/38/4 26/46/4 25/45/4 21/37/4 
f 24/42/5 28/48/5 27/47/5 23/41/5 
f 32/52/2 31/51/2 30/50/2 29/49/2 
f 36/56/2 35/55/2 34/54/2 33/53/2 
f 31/51/2 36/56/2 33/53/2 30/50/2 
f 38/58/2 37/57/2 29/49/2 30/50/2 
f 34/54/2 40/60/2 39/59/2 33/53/2 
f 39/59/2 38/58/2 30/50/2 33/53/2 
f 44/64/3 43/63/3 42/62/3 41/61/3 
f 35/55/2 46/66/2 45/65/2 34/54/2 
f 46/68/3 44/64/3 41/61/3 45/67/3 
f 50/72/1 49/71/1 48/70/1 47/69/1 
f 54/76/1 53/75/1 52/74/1 51/73/1 
f 53/75/1 50/72/1 47/69/1 52/74/1 
f 48/70/1 19/78/1 55/77/1 47/69/1 
f 56/80/1 23/79/1 51/73/1 52/74/1 
f 55/77/1 56/80/1 52/74/1 47/69/1 
f 58/82/1 54/76/1 51/73/1 57/81/1 
f 43/63/3 58/84/3 57/83/3 42/62/3 
f 62/88/4 61/87/4 60/86/4 59/85/4 
f 64/90/2 63/89/2 37/57/2 38/58/2 
f 61/87/4 63/92/4 64/91/4 60/86/4 
f 68/96/4 67/95/4 66/94/4 65/93/4 
f 66/94/4 59/85/4 60/86/4 65/93/4 
f 70/98/2 69/97/2 39/59/2 40/60/2 
f 69/100/4 70/99/4 68/96/4 65/93/4 
f 49/104/6 32/103/6 63/102/6 71/101/6 
f 46/107/5 32/106/5 49/44/5 58/105/5 
f 75/111/1 74/110/1 73/109/1 72/108/1 
f 73/109/1 77/113/1 76/112/1 72/108/1 
f 74/116/6 79/115/6 78/114/6 77/33/6 
f 79/120/2 81/119/2 80/118/2 78/117/2 
f 81/124/3 83/123/3 82/122/3 80/121/3 
f 81/128/5 79/127/5 74/126/5 83/125/5 
f 88/133/1 87/132/1 86/131/1 85/130/1 84/129/1 
f 91/136/1 90/135/1 89/134/1 
f 76/111/1 77/110/1 91/136/1 89/134/1 
f 89/134/1 90/135/1 87/132/1 88/133/1 
f 77/116/7 78/115/7 92/138/7 86/137/7 
f 78/120/2 80/119/2 93/140/2 92/139/2 
f 80/124/8 82/123/8 85/142/8 93/141/8 
f 86/146/9 92/145/9 93/144/9 85/143/9 
f 97/148/5 96/43/5 95/42/5 94/147/5 
f 101/150/2 100/60/2 99/57/2 98/149/2 
f 103/152/2 102/151/2 101/150/2 98/149/2 
f 102/154/5 103/153/5 97/148/5 94/147/5 
f 107/157/3 106/122/3 105/156/3 104/155/3 
f 109/159/3 108/158/3 107/157/3 104/155/3 
f 94/147/5 95/42/5 108/48/5 109/160/5 
f 111/162/2 110/161/2 100/60/2 101/150/2 
f 104/155/3 105/156/3 110/164/3 111/163/3 
f 96/36/6 103/166/6 99/165/6 112/33/6 
f 108/169/1 96/168/1 112/78/1 106/167/1 
f 112/40/4 99/88/4 110/170/4 106/45/4 
f 115/174/6 114/173/6 102/172/6 113/171/6 
f 119/178/3 118/177/3 117/176/3 116/175/3 
f 114/173/6 120/180/6 101/179/6 102/172/6 
f 111/182/3 121/181/3 119/178/3 116/175/3 
f 101/186/4 120/185/4 121/184/4 111/183/4 
f 123/188/6 122/187/6 113/171/6 102/172/6 
f 5/190/3 124/189/3 116/175/3 117/176/3 
f 124/189/3 125/191/3 111/182/3 116/175/3 
f 129/194/6 128/115/6 127/193/6 126/192/6 
f 133/124/3 132/197/3 131/196/3 130/195/3 
f 133/128/5 128/127/5 129/199/5 132/198/5 
f 34/201/6 129/194/6 126/192/6 40/200/6 
f 132/197/3 45/203/3 8/202/3 131/196/3 
f 129/199/5 34/205/5 45/204/5 132/198/5 
f 127/193/6 115/174/6 113/171/6 126/192/6 
f 117/176/3 118/177/3 130/195/3 131/196/3 
f 113/171/6 122/187/6 40/200/6 126/192/6 
f 8/202/3 5/190/3 117/176/3 131/196/3 
f 122/187/6 123/188/6 135/207/6 134/206/6 
f 124/189/3 5/190/3 137/209/3 136/208/3 
f 138/210/3 125/191/3 124/189/3 136/208/3 
f 94/212/6 22/211/6 134/206/6 135/207/6 
f 22/216/1 94/215/1 109/214/1 26/213/1 
f 26/218/3 109/217/3 136/208/3 137/209/3 
f 109/217/3 104/219/3 138/210/3 136/208/3 
f 45/203/3 42/221/3 139/220/3 8/202/3 
f 57/224/1 51/110/1 23/223/1 27/222/1 
f 42/221/3 57/226/3 27/225/3 139/220/3 
f 128/120/2 133/119/2 121/228/2 120/227/2 
f 38/230/6 142/229/6 141/20/6 140/19/6 
f 145/10/3 39/231/3 144/26/3 143/7/3 
f 145/18/5 142/17/5 38/32/5 39/31/5 
f 142/3/2 145/6/2 143/5/2 141/2/2 
f 147/233/4 141/13/4 143/12/4 146/232/4 
f 151/71/1 150/235/1 149/234/1 148/70/1 
f 154/239/2 153/238/2 152/237/2 83/236/2 
f 153/106/5 154/241/5 150/240/5 151/44/5 
f 149/234/1 156/243/1 155/242/1 148/70/1 
f 152/237/2 20/245/2 157/244/2 83/236/2 
f 150/235/1 159/247/1 158/246/1 149/234/1 
f 160/249/2 154/239/2 83/236/2 75/248/2 
f 154/241/5 160/251/5 159/250/5 150/240/5 
f 158/246/1 162/253/1 161/252/1 156/243/1 149/234/1 
f 162/253/1 163/254/1 161/252/1 
f 165/256/1 151/71/1 148/70/1 164/255/1 
f 153/238/2 167/55/2 166/54/2 152/237/2 
f 167/258/5 153/106/5 151/44/5 165/257/5 
f 148/70/1 155/242/1 168/79/1 164/255/1 
f 24/60/2 20/245/2 152/237/2 166/54/2 
f 172/262/1 171/261/1 170/260/1 169/259/1 
f 175/266/2 174/265/2 82/264/2 173/263/2 
f 174/270/4 175/269/4 171/268/4 172/267/4 
f 176/271/1 172/262/1 169/259/1 
f 88/273/4 174/270/4 172/267/4 176/272/4 
f 170/260/1 155/242/1 156/243/1 169/259/1 
f 82/264/2 157/244/2 20/245/2 173/263/2 
f 178/275/1 177/274/1 176/271/1 169/259/1 
f 177/277/4 89/276/4 88/273/4 176/272/4 
f 169/259/1 156/243/1 161/252/1 
f 163/254/1 178/275/1 169/259/1 161/252/1 
f 182/281/1 181/280/1 180/279/1 179/278/1 
f 184/283/4 183/99/4 181/38/4 182/282/4 
f 171/261/1 182/281/1 179/278/1 170/260/1 
f 175/269/4 184/283/4 182/282/4 171/268/4 
f 185/284/1 179/278/1 180/279/1 
f 168/79/1 155/242/1 170/260/1 179/278/1 185/284/1 
f 159/104/6 160/103/6 89/102/6 177/101/6 
f 189/101/6 188/287/6 187/286/6 186/285/6 
f 192/291/3 191/290/3 190/289/3 2/288/3 
f 194/292/6 165/104/6 168/34/6 193/167/6 
f 197/84/3 196/295/3 195/294/3 3/293/3 
f 168/34/6 189/101/6 186/285/6 193/167/6 
f 195/294/3 192/291/3 2/288/3 3/293/3 
f 21/102/6 198/296/6 188/287/6 189/101/6 
f 25/299/2 199/298/2 198/297/2 21/98/2 
f 2/288/3 190/289/3 199/301/3 25/300/3 
f 167/55/2 200/66/2 28/161/2 24/60/2 
f 200/68/3 197/84/3 3/293/3 28/302/3 
f 196/82/1 194/76/1 187/304/1 191/303/1 
f 187/307/4 198/99/4 199/306/4 191/305/4 
f 200/311/5 167/310/5 194/309/5 196/308/5 
f 204/315/1 203/314/1 202/313/1 201/312/1 
f 208/319/2 207/318/2 206/317/2 205/316/2 
f 210/321/1 209/320/1 204/315/1 201/312/1 
f 212/323/2 211/322/2 208/319/2 205/316/2 
f 211/325/5 212/153/5 209/43/5 210/324/5 
f 216/329/1 215/328/1 214/327/1 213/326/1 
f 220/333/2 219/332/2 218/331/2 217/330/2 
f 222/335/1 221/334/1 216/329/1 213/326/1 
f 224/337/2 223/336/2 220/333/2 217/330/2 
f 223/340/5 224/339/5 221/338/5 222/48/5 
f 201/312/1 202/313/1 215/328/1 216/329/1 
f 217/330/2 218/331/2 207/318/2 208/319/2 
f 209/344/6 212/343/6 206/342/6 203/341/6 
f 223/348/3 222/347/3 214/346/3 219/345/3 
f 203/40/4 206/88/4 219/170/4 214/45/4 
f 228/292/2 227/351/2 226/350/2 225/349/2 
f 230/82/6 228/76/6 225/353/6 229/352/6 
f 227/55/3 232/66/3 231/355/3 226/354/3 
f 232/358/1 230/295/1 229/357/1 231/356/1 
f 225/361/4 226/360/4 231/359/4 229/305/4 
f 232/363/5 227/362/5 228/309/5 230/308/5 
f 208/365/3 211/343/3 210/344/3 201/364/3 
f 216/367/6 221/347/6 224/348/6 217/366/6 
f 201/371/5 216/370/5 217/369/5 208/368/5 
f 236/374/10 235/103/10 234/373/10 233/372/10 
f 235/55/3 238/66/3 237/298/3 234/297/3 
f 238/377/11 240/376/11 239/375/11 237/301/11 
f 233/381/12 234/380/12 237/379/12 239/378/12 
f 238/311/13 235/310/13 236/383/13 240/382/13 
f 244/36/6 243/166/6 242/165/6 241/33/6 
f 246/169/1 244/168/1 241/242/1 245/167/1 
f 243/152/2 248/384/2 247/161/2 242/57/2 
f 248/385/3 246/158/3 245/122/3 247/164/3 
f 241/40/4 242/88/4 247/170/4 245/45/4 
f 248/340/5 243/153/5 244/43/5 246/48/5 
f 252/374/14 251/388/14 250/387/14 249/386/14 
f 254/82/6 252/76/6 249/304/6 253/303/6 
f 256/377/11 254/376/11 253/375/11 255/301/11 
f 249/390/12 250/389/12 255/379/12 253/378/12 
f 256/311/15 251/392/15 252/391/15 254/382/15 
f 260/292/2 259/351/2 258/350/2 257/349/2 
f 262/82/6 260/76/6 257/353/6 261/352/6 
f 259/55/3 264/66/3 263/355/3 258/354/3 
f 264/358/1 262/295/1 261/357/1 263/356/1 
f 257/361/4 258/360/4 263/359/4 261/305/4 
f 264/363/5 259/362/5 260/309/5 262/308/5 


